<svg width="38" height="38" viewBox="0 0 38 38" fill="none" xmlns="http://www.w3.org/2000/svg">
<path fill-rule="evenodd" clip-rule="evenodd" d="M38 19C38 29.4934 29.4934 38 19 38C8.50659 38 0 29.4934 0 19C0 8.50659 8.50659 0 19 0C29.4934 0 38 8.50659 38 19ZM19.36 10C16.818 10 16.4992 10.0108 15.5009 10.0563C14.5046 10.1018 13.8242 10.26 13.2288 10.4914C12.6133 10.7306 12.0913 11.0506 11.571 11.571C11.0506 12.0913 10.7306 12.6134 10.4914 13.2289C10.26 13.8242 10.1018 14.5046 10.0563 15.5009C10.0108 16.4992 10 16.818 10 19.36C10 21.902 10.0108 22.2208 10.0563 23.2191C10.1018 24.2154 10.26 24.8958 10.4914 25.4911C10.7306 26.1066 11.0507 26.6286 11.571 27.149C12.0914 27.6694 12.6133 27.9894 13.2288 28.2286C13.8242 28.46 14.5046 28.6182 15.5009 28.6637C16.4992 28.7092 16.818 28.72 19.36 28.72C21.902 28.72 22.2208 28.7092 23.2191 28.6637C24.2154 28.6182 24.8958 28.46 25.4911 28.2286C26.1066 27.9894 26.6286 27.6694 27.149 27.149C27.6694 26.6286 27.9894 26.1066 28.2286 25.4911C28.46 24.8958 28.6182 24.2154 28.6637 23.2191C28.7092 22.2208 28.72 21.902 28.72 19.36C28.72 16.818 28.7092 16.4992 28.6637 15.5009C28.6182 14.5046 28.46 13.8242 28.2286 13.2289C27.9894 12.6134 27.6694 12.0913 27.149 11.571C26.6286 11.0506 26.1066 10.7306 25.4911 10.4914C24.8958 10.26 24.2154 10.1018 23.2191 10.0563C22.2208 10.0108 21.902 10 19.36 10ZM19.36 11.6865C21.8592 11.6865 22.1553 11.696 23.1422 11.7411C24.0548 11.7827 24.5504 11.9351 24.8802 12.0633C25.3172 12.2331 25.629 12.436 25.9565 12.7635C26.284 13.091 26.4868 13.4028 26.6567 13.8397C26.7848 14.1696 26.9373 14.6652 26.9789 15.5778C27.024 16.5647 27.0335 16.8608 27.0335 19.36C27.0335 21.8592 27.024 22.1553 26.9789 23.1422C26.9373 24.0548 26.7848 24.5504 26.6567 24.8802C26.4868 25.3172 26.284 25.629 25.9565 25.9565C25.629 26.284 25.3171 26.4868 24.8803 26.6567C24.5504 26.7848 24.0548 26.9373 23.1422 26.9789C22.1554 27.024 21.8594 27.0335 19.36 27.0335C16.8606 27.0335 16.5646 27.024 15.5778 26.9789C14.6651 26.9373 14.1696 26.7848 13.8398 26.6567C13.4028 26.4868 13.091 26.284 12.7635 25.9565C12.436 25.629 12.2331 25.3171 12.0633 24.8803C11.9351 24.5504 11.7827 24.0548 11.7411 23.1422C11.696 22.1553 11.6865 21.8592 11.6865 19.36C11.6865 16.8608 11.696 16.5647 11.7411 15.5778C11.7827 14.6651 11.9351 14.1696 12.0633 13.8398C12.2331 13.4028 12.436 13.091 12.7635 12.7635C13.091 12.436 13.4028 12.2331 13.8397 12.0633C14.1696 11.9351 14.6652 11.7827 15.5778 11.7411C16.5647 11.696 16.8608 11.6865 19.36 11.6865H19.36ZM16.2396 19.3599C16.2396 21.0831 17.6365 22.4799 19.3596 22.4799C21.0828 22.4799 22.4796 21.0831 22.4796 19.3599C22.4796 17.6368 21.0828 16.2399 19.3596 16.2399C17.6365 16.2399 16.2396 17.6368 16.2396 19.3599ZM14.5531 19.3599C14.5531 16.7054 16.705 14.5534 19.3596 14.5534C22.0142 14.5534 24.1661 16.7054 24.1661 19.3599C24.1661 22.0145 22.0142 24.1664 19.3596 24.1664C16.705 24.1664 14.5531 22.0145 14.5531 19.3599ZM24.356 15.4867C24.9763 15.4867 25.4792 14.9839 25.4792 14.3635C25.4792 13.7432 24.9763 13.2403 24.356 13.2403C23.7357 13.2403 23.2328 13.7432 23.2328 14.3635C23.2328 14.9839 23.7357 15.4867 24.356 15.4867Z" fill="#A0A0A0"/>
</svg>
