<svg width="203" height="322" viewBox="0 0 203 322" fill="none" xmlns="http://www.w3.org/2000/svg">
<path d="M13.2829 151.932L1 29.5647H76.2758L64.3382 151.932C64.3382 151.932 62.0691 157.835 38.8106 157.835C15.552 157.835 13.2829 151.932 13.2829 151.932Z" fill="#FFEEEE" stroke="black" stroke-width="0.405544"/>
<path d="M16.274 148.88L5.43994 40.9031H71.8366L61.3071 148.88C61.3071 148.88 59.3056 154.089 38.7905 154.089C18.2755 154.089 16.274 148.88 16.274 148.88Z" fill="#FC6637" stroke="black" stroke-width="0.405544"/>
<path d="M7.43377 24.3466C6.43541 24.8981 7.36471 27.265 7.36471 27.265C7.36471 27.265 6.51444 28.0535 6.76593 28.8231C7.01742 29.5928 7.68072 30.0577 7.68072 30.0577C7.68072 30.0577 6.85426 31.3042 7.20769 32.0007C7.54177 32.659 8.91931 32.8048 8.91931 32.8048C8.91931 32.8048 7.83709 34.2288 8.21369 35.0792C8.57586 35.897 10.2569 36.1158 10.2569 36.1158C10.2569 36.1158 9.66586 37.2779 9.98981 37.9064C10.328 38.5626 11.7014 38.7106 11.7014 38.7106C11.7014 38.7106 11.201 40.0006 11.3809 40.8593C11.5608 41.718 13.2717 41.6901 13.2717 41.6901C13.2717 41.6901 12.2666 43.4686 12.8842 44.2878C13.4916 45.0936 15.4411 44.6687 15.4411 44.6687C15.4411 44.6687 15.1872 46.4789 15.9291 47.204C16.6814 47.9391 18.8228 47.3966 18.8228 47.3966C18.8228 47.3966 20.5406 49.0572 21.4708 48.4471C22.3188 47.891 21.8538 45.8801 21.8538 45.8801C21.8538 45.8801 23.8238 44.2172 23.4827 42.962C23.2039 41.9363 21.4558 41.348 21.4558 41.348C21.4558 41.348 22.0338 39.4956 21.5381 38.7959C21.052 38.1097 19.2875 38.2816 19.2875 38.2816L19.3973 36.7455C18.9368 36.0837 17.611 35.9302 17.611 35.9302C17.611 35.9302 18.0172 34.5424 17.5465 33.9072C17.0758 33.2719 15.629 33.2554 15.629 33.2554C15.629 33.2554 16.1607 31.9194 15.7437 31.259C15.2844 30.5316 13.647 30.5805 13.647 30.5805C13.647 30.5805 14.3414 29.2776 13.9408 28.6109C13.5337 27.9332 12.0233 27.9591 12.0233 27.9591C12.0233 27.9591 12.0965 26.902 11.6995 26.4465C11.2325 25.9108 9.93443 26.0005 9.93443 26.0005C9.93443 26.0005 8.45866 23.7804 7.43377 24.3466Z" fill="#237A2C" stroke="black" stroke-width="0.405544"/>
<path d="M7.47949 24.3625L21.2477 48.4142" stroke="#005108" stroke-width="0.405544"/>
<path d="M8.27441 34.6913L12.7193 33.7523L15.3934 30.9716" stroke="#005108" stroke-width="0.405544"/>
<path d="M7.15479 31.7299L11.0214 30.6826L13.6233 28.4436" stroke="#005108" stroke-width="0.405544"/>
<path d="M6.72119 28.588L9.57601 28.1546L11.5997 26.2045" stroke="#005108" stroke-width="0.405544"/>
<path d="M10.0454 37.8694L14.4541 36.8221L17.1644 33.6802" stroke="#005108" stroke-width="0.405544"/>
<path d="M11.4189 40.8666L16.0445 39.422L19.2968 36.7135" stroke="#005108" stroke-width="0.405544"/>
<path d="M12.7915 43.3945L17.7784 42.4555L21.2837 38.6997" stroke="#005108" stroke-width="0.405544"/>
<path d="M15.5381 46.717L19.5854 45.8864L23.1269 42.4917" stroke="#005108" stroke-width="0.405544"/>
<path d="M67.852 1H69.7304L50.5947 42.8038H48.7163L67.852 1Z" fill="#D5B48D" stroke="black" stroke-width="0.405544"/>
<path d="M58.8285 1.93762H53.7674C52.7391 1.93762 52.3968 3.31403 53.3052 3.7958L60.1564 7.42905C60.9676 7.85923 60.8028 9.06703 59.9061 9.26421L52.4245 10.9093C51.5277 11.1065 51.363 12.3143 52.1741 12.7445L60.1564 16.9775C60.9676 17.4077 60.8028 18.6155 59.9061 18.8127L52.4245 20.4578C51.5277 20.655 51.363 21.8628 52.1741 22.2929L60.1564 26.526C60.9676 26.9562 60.8028 28.164 59.9061 28.3612L52.4245 30.0063C51.5277 30.2034 51.363 31.4112 52.1741 31.8414L62.3125 37.2179C62.4549 37.2934 62.6135 37.3328 62.7747 37.3328H67.8358C68.8641 37.3328 69.2065 35.9564 68.298 35.4747L61.4468 31.8414C60.6356 31.4112 60.8004 30.2034 61.6971 30.0063L69.1787 28.3612C70.0755 28.164 70.2402 26.9562 69.4291 26.526L61.4468 22.2929C60.6356 21.8628 60.8004 20.655 61.6971 20.4578L69.1787 18.8127C70.0755 18.6155 70.2402 17.4077 69.4291 16.9775L61.4468 12.7445C60.6356 12.3143 60.8004 11.1065 61.6971 10.9093L69.1787 9.26421C70.0755 9.06703 70.2402 7.85923 69.4291 7.42905L59.2907 2.0526C59.1484 1.9771 58.9897 1.93762 58.8285 1.93762Z" fill="url(#paint0_linear_3553_3232)" stroke="black" stroke-width="0.405544"/>
<path d="M28.591 31.919C27.7078 31.5858 26.7134 33.4402 26.7134 33.4402C26.7134 33.4402 25.7602 33.3275 25.4096 33.8985C25.0591 34.4696 25.1215 35.1367 25.1215 35.1367C25.1215 35.1367 23.8922 35.2845 23.6425 35.8805C23.4064 36.4439 24.0531 37.3898 24.0531 37.3898C24.0531 37.3898 22.5747 37.4717 22.2403 38.1648C21.9187 38.8314 22.6821 40.0076 22.6821 40.0076C22.6821 40.0076 21.6323 40.2584 21.4096 40.7995C21.1771 41.3643 21.8202 42.3087 21.8202 42.3087C21.8202 42.3087 20.7382 42.6852 20.2931 43.2589C19.848 43.8327 20.783 44.8954 20.783 44.8954C20.783 44.8954 19.1224 45.2159 18.9369 46.0441C18.7544 46.8588 20.0676 47.8589 20.0676 47.8589C20.0676 47.8589 18.7898 48.6696 18.7304 49.5256C18.6701 50.3936 20.1604 51.4515 20.1604 51.4515C20.1604 51.4515 20.0342 53.4239 20.9177 53.6827C21.7231 53.9187 22.742 52.5476 22.742 52.5476C22.742 52.5476 24.847 52.8967 25.4558 52.0089C25.9532 51.2833 25.3869 49.8668 25.3869 49.8668C25.3869 49.8668 26.8651 49.2376 27.0406 48.5503C27.2127 47.8762 26.1582 46.8569 26.1582 46.8569L27.1859 46.1025C27.3564 45.4575 26.7423 44.5402 26.7423 44.5402C26.7423 44.5402 27.8354 44.0519 27.9836 43.4148C28.1319 42.7777 27.3665 41.8576 27.3665 41.8576C27.3665 41.8576 28.4942 41.4761 28.6871 40.8594C28.8996 40.1801 27.9908 39.175 27.9908 39.175C27.9908 39.175 29.1848 38.9138 29.3906 38.3039C29.5997 37.6841 28.7735 36.7467 28.7735 36.7467C28.7735 36.7467 29.4794 36.226 29.5538 35.7317C29.6413 35.1503 28.8887 34.3808 28.8887 34.3808C28.8887 34.3808 29.4976 32.2609 28.591 31.919Z" fill="#237A2C" stroke="black" stroke-width="0.405544"/>
<path d="M28.606 31.9569L20.8193 53.5251" stroke="#005108" stroke-width="0.405544"/>
<path d="M22.5183 37.9958L25.4938 40.292L28.6813 40.4853" stroke="#005108" stroke-width="0.405544"/>
<path d="M23.7853 35.7023L26.519 37.5762L29.3262 38.0145" stroke="#005108" stroke-width="0.405544"/>
<path d="M25.5344 33.7445L27.3384 35.3103L29.6534 35.5393" stroke="#005108" stroke-width="0.405544"/>
<path d="M21.4629 40.815L24.4873 43.0304L27.9221 43.0528" stroke="#005108" stroke-width="0.405544"/>
<path d="M20.3095 43.287L23.7006 45.4259L27.1527 46.0222" stroke="#005108" stroke-width="0.405544"/>
<path d="M19.4517 45.5075L22.7178 48.1451L26.966 48.3392" stroke="#005108" stroke-width="0.405544"/>
<path d="M18.8284 49.0187L21.5223 51.1226L25.5621 51.5331" stroke="#005108" stroke-width="0.405544"/>
<path d="M55.1183 52.5946C56.9683 51.4449 58.3579 50.2702 60.4382 50.9167C61.2846 51.1797 61.5776 51.7202 62.39 52.0748C63.1664 52.4136 63.744 52.2597 64.4668 52.7014C66.2059 53.764 65.9404 55.5717 66.3452 57.5682C66.6758 59.1985 66.9593 60.1923 66.6128 61.8192C66.0737 64.3504 64.5202 65.3445 62.6433 67.1275C59.6401 69.9804 57.0143 73.8695 53.2701 72.0959C49.5979 70.3565 50.9063 66.0153 50.9664 61.9546C51.005 59.3505 50.6463 57.5574 52.073 55.378C52.9553 54.0302 53.7497 53.4451 55.1183 52.5946Z" fill="#FE521B" stroke="black" stroke-width="0.405544"/>
<path d="M60.0623 51.8242C59.0908 52.1987 58.0219 52.9368 56.9597 52.5501C57.8061 52.9549 58.7297 53.4955 59.6325 53.6217C59.7794 53.6423 59.5032 54.0059 59.4065 54.1186C59.0861 54.492 58.4838 54.7642 58.0231 54.8742C57.3468 55.0358 56.3814 55.3382 55.6867 55.2247C55.5491 55.2022 54.8495 54.9777 54.8495 54.9777C54.8495 54.9777 55.1102 55.6138 55.1683 55.6821C55.5812 56.1673 56.389 56.5405 56.9991 56.7127C57.1186 56.7465 57.359 56.6078 57.4448 56.7243C57.5417 56.856 56.999 57.2293 56.9222 57.2926C56.4924 57.647 56.0057 57.7974 55.5179 58.0446C55.2585 58.176 54.9576 58.3862 54.6656 58.4161C54.2048 58.4631 53.3287 58.0378 53.3287 58.0378C53.3287 58.0378 54.4387 58.9354 55.0117 59.3635C55.4306 59.6765 55.8738 59.3923 56.3227 59.3811C56.9447 59.3654 56.1965 60.0183 56.0096 60.1885C55.0858 61.0298 52.859 60.7864 52.859 60.7864C52.859 60.7864 53.6213 61.8112 53.8017 61.9136C54.038 62.0479 54.0791 62.0366 54.3277 62.1467C54.587 62.2616 54.7034 62.2461 54.9601 62.2241C55.3545 62.1903 55.5702 62.1931 55.2429 62.5521C54.769 63.0718 54.5026 63.6015 53.4458 63.5699L51.7193 63.3558C51.7193 63.3558 52.6882 64.6418 53.2668 64.8981C53.4097 64.9614 54.037 64.9716 54.0778 65.0771C54.2778 65.5955 52.8698 65.5887 52.6638 65.5877L52.6638 65.5877L52.6622 65.5877C52.4221 65.5865 51.808 65.5697 51.808 65.5697C51.808 65.5697 52.5942 66.3235 53.0895 66.5429C53.2869 66.6303 53.8239 66.6151 53.7488 66.7843C53.5242 67.2906 53.2393 67.126 52.8276 67.2604C52.512 67.3633 51.6586 66.9227 51.6586 66.9227C51.6586 66.9227 51.9384 67.522 52.0454 67.6516C52.3021 67.9625 52.6 68.2521 52.9736 68.4176C53.0813 68.4653 53.2086 68.5486 53.3263 68.5626C53.4987 68.5832 53.9352 68.3737 53.8457 68.5224C53.5961 68.9369 51.962 69.0846 51.962 69.0846C51.962 69.0846 53.4609 69.7486 53.9017 69.1329C54.2079 68.9136 53.9385 69.3295 53.8738 69.4753L53.6729 71.3943L54.8492 70.3636C55.1943 70.001 55.5502 70.9558 55.5502 70.9558C55.5502 70.9558 55.6557 70.3269 55.6542 70.3147C55.5769 69.6904 55.7124 69.2181 55.9644 68.65C56.1032 68.3371 56.563 67.8575 56.563 67.8575L57.5417 69.9539C57.5417 69.9539 57.67 68.837 57.4489 67.9566C57.124 66.663 57.7797 64.5575 57.7797 64.5575C57.7797 64.5575 58.4313 66.9002 58.8542 67.381C59.2771 67.8617 60.2269 68.258 60.2269 68.258C60.2269 68.258 59.502 67.2933 59.4085 65.0834C58.8321 62.7908 59.9194 62.2497 60.062 62.1208C62.0448 64.4907 63.3894 64.5485 63.3894 64.5485C63.3894 64.5485 62.1918 62.7402 62.1437 62.6469C61.8328 62.0444 61.5178 61.1928 61.3508 60.5216C61.2461 60.1011 63.9912 61.0738 63.9912 61.0738C63.9912 61.0738 62.7279 59.4624 62.5778 58.7843C62.4278 58.1063 62.2036 58.0562 62.233 57.6178C62.2421 57.4236 62.2115 57.0563 62.4389 57.3317C63.1369 58.1771 64.8025 59.9838 64.8025 59.9838C64.8025 59.9838 65.0029 59.4933 64.4938 58.6194C63.9847 57.7454 63.4259 57.0102 63.4349 56.2805C63.4415 55.7449 64.1593 57.0943 64.6223 57.3641C64.9002 57.526 65.125 57.7038 65.4346 57.8197C65.4346 57.8197 64.4898 55.9447 64.3182 55.0078C64.2437 54.8147 64.4686 54.0192 64.3054 53.8785C64.1181 53.7172 63.8392 53.638 63.6142 53.5384C63.3983 53.4427 63.1502 53.3218 62.9136 53.2959C62.6457 53.2666 62.3549 53.3502 62.0951 53.2922C61.7125 53.2068 61.3974 52.7762 61.1764 52.4802L61.1731 52.4759C61.0135 52.2621 60.9571 52.1867 60.6995 52.0725C60.5628 52.012 60.2064 51.7686 60.0623 51.8242Z" fill="#FFC1AD"/>
<path d="M56.844 52.5035C57.9442 52.9909 59.0555 52.2123 60.0623 51.8242C60.2064 51.7686 60.5628 52.012 60.6995 52.0725C60.9571 52.1867 61.0135 52.2621 61.1731 52.4759L61.1764 52.4802C61.3974 52.7762 61.7125 53.2068 62.0951 53.2922C62.3549 53.3502 62.6457 53.2666 62.9136 53.2959C63.1502 53.3218 63.3983 53.4427 63.6142 53.5384C63.8392 53.638 64.1181 53.7172 64.3054 53.8785C64.4686 54.0192 64.2437 54.8147 64.3182 55.0078C64.4898 55.9447 65.4346 57.8197 65.4346 57.8197C65.125 57.7038 64.9002 57.526 64.6223 57.3641C64.1593 57.0943 63.4415 55.7449 63.4349 56.2805C63.4259 57.0102 63.9847 57.7454 64.4938 58.6194C65.0029 59.4933 64.8025 59.9838 64.8025 59.9838C64.8025 59.9838 63.1369 58.1771 62.4389 57.3317C62.2115 57.0563 62.2421 57.4236 62.233 57.6178C62.2036 58.0562 62.4278 58.1063 62.5778 58.7843C62.7279 59.4624 63.9911 61.0738 63.9911 61.0738C63.9911 61.0738 61.2461 60.1011 61.3507 60.5216C61.5178 61.1928 61.8328 62.0444 62.1437 62.6469C62.1918 62.7402 63.3894 64.5485 63.3894 64.5485C63.3894 64.5485 62.0448 64.4907 60.062 62.1208C59.9194 62.2497 58.8321 62.7908 59.4085 65.0834C59.502 67.2933 60.2269 68.258 60.2269 68.258C60.2269 68.258 59.2771 67.8617 58.8542 67.381C58.4313 66.9002 57.7797 64.5575 57.7797 64.5575C57.7797 64.5575 57.124 66.663 57.4489 67.9566C57.67 68.837 57.5417 69.9539 57.5417 69.9539L56.563 67.8575C56.563 67.8575 56.1032 68.3371 55.9644 68.65C55.7124 69.2181 55.5769 69.6904 55.6542 70.3147C55.6557 70.3269 55.5502 70.9558 55.5502 70.9558C55.5502 70.9558 55.1943 70.001 54.8492 70.3636L53.6729 71.3943L53.8738 69.4753C53.9385 69.3295 54.2079 68.9136 53.9017 69.1329C53.4609 69.7486 51.962 69.0846 51.962 69.0846C51.962 69.0846 53.5961 68.9369 53.8457 68.5224C53.9352 68.3737 53.4987 68.5832 53.3263 68.5626C53.2086 68.5486 53.0813 68.4653 52.9736 68.4176C52.6 68.2521 52.3021 67.9625 52.0454 67.6516C51.9384 67.522 51.6586 66.9227 51.6586 66.9227C51.6586 66.9227 52.512 67.3633 52.8276 67.2604C53.2393 67.126 53.5242 67.2906 53.7488 66.7843C53.8239 66.6151 53.2869 66.6303 53.0895 66.5429C52.5942 66.3235 51.808 65.5697 51.808 65.5697C51.808 65.5697 52.4221 65.5865 52.6622 65.5877L52.6638 65.5877C52.8697 65.5887 54.2778 65.5955 54.0778 65.0771C54.037 64.9716 53.4097 64.9614 53.2668 64.8981C52.6882 64.6418 51.7193 63.3558 51.7193 63.3558L53.4458 63.5699C54.5026 63.6015 54.769 63.0718 55.2429 62.5521C55.5702 62.1931 55.3545 62.1903 54.9601 62.2241C54.7034 62.2461 54.587 62.2616 54.3277 62.1467C54.0791 62.0366 54.038 62.0479 53.8017 61.9136C53.6213 61.8112 52.859 60.7864 52.859 60.7864C52.859 60.7864 55.0858 61.0298 56.0096 60.1885C56.1965 60.0183 56.9447 59.3654 56.3227 59.3811C55.8738 59.3923 55.4306 59.6765 55.0117 59.3635C54.4387 58.9354 53.3287 58.0378 53.3287 58.0378C53.3287 58.0378 54.2048 58.4631 54.6656 58.4161C54.9576 58.3862 55.2585 58.176 55.5179 58.0446C56.0057 57.7974 56.4924 57.647 56.9222 57.2926C56.999 57.2293 57.5417 56.856 57.4448 56.7243C57.359 56.6078 57.1186 56.7465 56.9991 56.7127C56.389 56.5405 55.5812 56.1673 55.1683 55.682C55.1102 55.6138 54.8495 54.9777 54.8495 54.9777C54.8495 54.9777 55.5491 55.2022 55.6867 55.2247C56.3814 55.3382 57.3468 55.0358 58.0231 54.8743C58.4838 54.7642 59.0861 54.492 59.4065 54.1186C59.5032 54.0059 59.7794 53.6423 59.6325 53.6217C58.6265 53.4811 57.5947 52.826 56.6727 52.4175" stroke="#BF3F17" stroke-width="0.405544" stroke-linecap="round"/>
<path d="M20.2706 51.0619C18.9536 50.2434 17.9644 49.4071 16.4834 49.8673C15.8808 50.0546 15.6722 50.4394 15.0939 50.6918C14.5412 50.933 14.1299 50.8234 13.6154 51.1379C12.3773 51.8944 12.5663 53.1813 12.2781 54.6026C12.0428 55.7632 11.8409 56.4707 12.0876 57.6289C12.4714 59.4309 13.5774 60.1386 14.9136 61.4079C17.0515 63.4389 18.9209 66.2076 21.5864 64.945C24.2006 63.7066 23.2692 60.6162 23.2264 57.7253C23.1989 55.8714 23.4543 54.5949 22.4386 53.0434C21.8105 52.0839 21.245 51.6673 20.2706 51.0619Z" fill="#FE521B" stroke="black" stroke-width="0.405544"/>
<path d="M16.7509 50.5134C17.4425 50.78 18.2035 51.3055 18.9597 51.0302C18.3571 51.3184 17.6996 51.7033 17.0568 51.7931C16.9522 51.8077 17.1489 52.0666 17.2177 52.1468C17.4458 52.4127 17.8746 52.6064 18.2026 52.6848C18.6841 52.7998 19.3713 53.015 19.8659 52.9342C19.9638 52.9182 20.4619 52.7584 20.4619 52.7584C20.4619 52.7584 20.2763 53.2113 20.235 53.2599C19.941 53.6053 19.366 53.871 18.9316 53.9936C18.8465 54.0176 18.6754 53.9189 18.6143 54.0019C18.5453 54.0956 18.9317 54.3613 18.9863 54.4064C19.2923 54.6587 19.6388 54.7658 19.9861 54.9418C20.1707 55.0353 20.3849 55.185 20.5928 55.2062C20.9208 55.2397 21.5446 54.937 21.5446 54.937C21.5446 54.937 20.7543 55.5759 20.3464 55.8807C20.0482 56.1035 19.7327 55.9012 19.4132 55.8932C18.9703 55.8821 19.503 56.3469 19.636 56.468C20.2937 57.067 21.879 56.8937 21.879 56.8937C21.879 56.8937 21.3363 57.6232 21.2079 57.6962C21.0397 57.7918 21.0103 57.7837 20.8334 57.8621C20.6488 57.9439 20.5659 57.9329 20.3832 57.9172C20.1024 57.8931 19.9488 57.8951 20.1819 58.1507C20.5192 58.5207 20.7089 58.8978 21.4612 58.8753L22.6903 58.7229C22.6903 58.7229 22.0006 59.6383 21.5887 59.8208C21.4869 59.8659 21.0403 59.8732 21.0113 59.9483C20.8689 60.3173 21.8713 60.3125 22.0179 60.3118L22.019 60.3117C22.19 60.3109 22.6272 60.2989 22.6272 60.2989C22.6272 60.2989 22.0675 60.8356 21.7149 60.9918C21.5744 61.054 21.1921 61.0432 21.2455 61.1636C21.4054 61.524 21.6083 61.4069 21.9013 61.5025C22.126 61.5758 22.7335 61.2622 22.7335 61.2622C22.7335 61.2622 22.5344 61.6888 22.4582 61.7811C22.2754 62.0024 22.0634 62.2086 21.7974 62.3264C21.7207 62.3604 21.6301 62.4196 21.5463 62.4296C21.4235 62.4443 21.1128 62.2951 21.1765 62.401C21.3542 62.6961 22.5175 62.8012 22.5175 62.8012C22.5175 62.8012 21.4505 63.2739 21.1366 62.8356C20.9187 62.6795 21.1105 62.9756 21.1565 63.0794L21.2996 64.4456L20.4621 63.7118C20.2165 63.4536 19.9631 64.1333 19.9631 64.1333C19.9631 64.1333 19.888 63.6856 19.889 63.677C19.9441 63.2325 19.8476 62.8963 19.6682 62.4918C19.5694 62.2691 19.242 61.9277 19.242 61.9277L18.5453 63.4201C18.5453 63.4201 18.4539 62.625 18.6114 61.9982C18.8427 61.0773 18.3759 59.5784 18.3759 59.5784C18.3759 59.5784 17.912 61.2461 17.6109 61.5884C17.3098 61.9307 16.6337 62.2128 16.6337 62.2128C16.6337 62.2128 17.1498 61.526 17.2163 59.9528C17.6266 58.3206 16.8526 57.9354 16.7511 57.8436C15.3395 59.5308 14.3823 59.5719 14.3823 59.5719C14.3823 59.5719 15.2348 58.2846 15.2691 58.2182C15.4904 57.7893 15.7147 57.183 15.8336 56.7052C15.9081 56.4058 13.9539 57.0983 13.9539 57.0983C13.9539 57.0983 14.8532 55.9511 14.96 55.4684C15.0669 54.9857 15.2265 54.95 15.2055 54.638C15.1991 54.4997 15.2208 54.2382 15.059 54.4343C14.5621 55.0361 13.3763 56.3223 13.3763 56.3223C13.3763 56.3223 13.2337 55.9731 13.5961 55.351C13.9585 54.7288 14.3563 54.2054 14.3499 53.6859C14.3452 53.3046 13.8342 54.2652 13.5046 54.4573C13.3067 54.5726 13.1467 54.6991 12.9263 54.7817C12.9263 54.7817 13.5989 53.4468 13.721 52.7798C13.7741 52.6424 13.614 52.076 13.7302 51.9759C13.8635 51.8611 14.0621 51.8047 14.2223 51.7338C14.3759 51.6657 14.5526 51.5796 14.721 51.5612C14.9117 51.5403 15.1188 51.5998 15.3037 51.5585C15.5761 51.4977 15.8004 51.1912 15.9578 50.9805L15.9601 50.9774C16.0737 50.8252 16.1138 50.7715 16.2972 50.6902C16.3946 50.6471 16.6483 50.4739 16.7509 50.5134Z" fill="#FFC1AD"/>
<path d="M19.042 50.997C18.2588 51.344 17.4676 50.7897 16.7509 50.5134C16.6483 50.4739 16.3946 50.6471 16.2972 50.6902C16.1138 50.7715 16.0737 50.8252 15.9601 50.9774L15.9578 50.9805C15.8004 51.1912 15.5761 51.4977 15.3037 51.5585C15.1188 51.5998 14.9117 51.5403 14.721 51.5612C14.5526 51.5796 14.3759 51.6657 14.2223 51.7338C14.0621 51.8047 13.8635 51.8611 13.7302 51.9759C13.614 52.076 13.7741 52.6424 13.721 52.7798C13.5989 53.4468 12.9263 54.7817 12.9263 54.7817C13.1467 54.6991 13.3067 54.5726 13.5046 54.4573C13.8342 54.2652 14.3452 53.3046 14.3499 53.6859C14.3563 54.2054 13.9585 54.7288 13.5961 55.351C13.2337 55.9731 13.3763 56.3223 13.3763 56.3223C13.3763 56.3223 14.5621 55.0361 15.059 54.4343C15.2208 54.2382 15.1991 54.4997 15.2055 54.638C15.2265 54.95 15.0669 54.9857 14.96 55.4684C14.8532 55.9511 13.9539 57.0983 13.9539 57.0983C13.9539 57.0983 15.9081 56.4058 15.8336 56.7052C15.7147 57.183 15.4904 57.7893 15.2691 58.2182C15.2348 58.2846 14.3823 59.5719 14.3823 59.5719C14.3823 59.5719 15.3395 59.5308 16.7511 57.8436C16.8526 57.9354 17.6266 58.3206 17.2163 59.9528C17.1498 61.526 16.6337 62.2128 16.6337 62.2128C16.6337 62.2128 17.3098 61.9307 17.6109 61.5884C17.912 61.2461 18.3759 59.5784 18.3759 59.5784C18.3759 59.5784 18.8427 61.0773 18.6114 61.9982C18.4539 62.625 18.5453 63.4201 18.5453 63.4201L19.242 61.9277C19.242 61.9277 19.5694 62.2691 19.6682 62.4918C19.8476 62.8963 19.9441 63.2325 19.889 63.677C19.888 63.6856 19.9631 64.1333 19.9631 64.1333C19.9631 64.1333 20.2165 63.4536 20.4621 63.7118L21.2996 64.4456L21.1565 63.0794C21.1105 62.9756 20.9187 62.6795 21.1366 62.8356C21.4505 63.2739 22.5175 62.8012 22.5175 62.8012C22.5175 62.8012 21.3542 62.6961 21.1765 62.401C21.1128 62.2951 21.4235 62.4443 21.5463 62.4296C21.6301 62.4196 21.7207 62.3604 21.7974 62.3264C22.0634 62.2086 22.2754 62.0024 22.4582 61.7811C22.5344 61.6888 22.7335 61.2622 22.7335 61.2622C22.7335 61.2622 22.126 61.5758 21.9013 61.5025C21.6083 61.4069 21.4054 61.524 21.2455 61.1636C21.1921 61.0432 21.5744 61.054 21.7149 60.9918C22.0675 60.8356 22.6272 60.2989 22.6272 60.2989C22.6272 60.2989 22.19 60.3109 22.019 60.3117L22.0179 60.3118C21.8713 60.3125 20.8689 60.3173 21.0113 59.9483C21.0403 59.8732 21.4869 59.8659 21.5887 59.8208C22.0006 59.6383 22.6903 58.7229 22.6903 58.7229L21.4612 58.8753C20.7089 58.8978 20.5192 58.5207 20.1819 58.1507C19.9488 57.8951 20.1024 57.8931 20.3832 57.9172C20.5659 57.9329 20.6488 57.9439 20.8334 57.8621C21.0103 57.7837 21.0397 57.7918 21.2079 57.6962C21.3363 57.6232 21.879 56.8937 21.879 56.8937C21.879 56.8937 20.2937 57.067 19.636 56.468C19.503 56.3469 18.9703 55.8821 19.4132 55.8932C19.7327 55.9012 20.0482 56.1035 20.3464 55.8807C20.7543 55.5759 21.5446 54.937 21.5446 54.937C21.5446 54.937 20.9208 55.2397 20.5928 55.2062C20.3849 55.185 20.1707 55.0353 19.9861 54.9418C19.6388 54.7658 19.2923 54.6587 18.9863 54.4064C18.9317 54.3613 18.5453 54.0956 18.6143 54.0019C18.6754 53.9189 18.8465 54.0176 18.9316 53.9936C19.366 53.871 19.941 53.6053 20.235 53.2599C20.2763 53.2113 20.4619 52.7584 20.4619 52.7584C20.4619 52.7584 19.9638 52.9182 19.8659 52.9342C19.3713 53.015 18.6841 52.7998 18.2026 52.6848C17.8746 52.6064 17.4458 52.4127 17.2177 52.1468C17.1489 52.0666 16.9522 51.8077 17.0568 51.7931C17.773 51.693 18.5076 51.2266 19.164 50.9358" stroke="#BF3F17" stroke-width="0.405544" stroke-linecap="round"/>
<path d="M37.7017 54.0938C37.3349 52.8823 37.1789 51.8364 36.022 51.3212C35.5513 51.1115 35.2158 51.2353 34.7248 51.0787C34.2556 50.9291 34.0624 50.6404 33.5771 50.5562C32.4094 50.3536 31.8315 51.245 30.8881 51.9619C30.1179 52.5473 29.6125 52.8727 29.1393 53.7163C28.4031 55.0286 28.7001 56.0585 28.8355 57.557C29.0521 59.9546 28.7061 62.6602 31.0225 63.321C33.2943 63.9691 34.3894 61.5712 35.922 59.7743C36.9049 58.6219 37.7499 57.9762 37.9634 56.4772C38.0954 55.5502 37.973 54.99 37.7017 54.0938Z" fill="#FE521B" stroke="black" stroke-width="0.405544"/>
<path d="M35.8377 51.8615C36.1184 52.3975 36.3019 53.1298 36.9143 53.3681C36.3892 53.2205 35.7782 53.1025 35.3354 52.8115C35.2633 52.7641 35.2444 53.0289 35.2434 53.1151C35.24 53.4011 35.3986 53.7509 35.5576 53.9756C35.791 54.3055 36.0966 54.8077 36.4436 55.0245C36.5124 55.0674 36.9042 55.2376 36.9042 55.2376C36.9042 55.2376 36.5461 55.4155 36.4945 55.4231C36.1279 55.4767 35.6318 55.33 35.2991 55.1713C35.234 55.1403 35.1822 54.9875 35.1 55.0055C35.0071 55.0259 35.1009 55.397 35.1101 55.4541C35.1618 55.7737 35.3166 56.026 35.4348 56.321C35.4977 56.4779 35.5484 56.6851 35.6645 56.8101C35.8477 57.0073 36.3937 57.1574 36.3937 57.1574C36.3937 57.1574 35.5643 57.1239 35.1496 57.0912C34.8465 57.0673 34.762 56.7733 34.5702 56.5963C34.3045 56.3509 34.3807 56.923 34.397 57.069C34.4776 57.7907 35.5437 58.5381 35.5437 58.5381C35.5437 58.5381 34.8173 58.6935 34.6992 58.6691C34.5444 58.6372 34.5308 58.6164 34.38 58.5692C34.2226 58.52 34.1777 58.4686 34.074 58.3606C33.9147 58.1946 33.8193 58.1131 33.8245 58.3954C33.832 58.8041 33.7451 59.1377 34.2188 59.529L35.0552 60.0975C35.0552 60.0975 34.1383 60.2877 33.7871 60.1779C33.7004 60.1507 33.4224 59.9147 33.3641 59.9451C33.0777 60.0949 33.6954 60.6317 33.7858 60.7103L33.7858 60.7103L33.7865 60.7109C33.8918 60.8024 34.1665 61.0305 34.1665 61.0305C34.1665 61.0305 33.5337 61.0584 33.2331 60.9643C33.1133 60.9268 32.8846 60.7143 32.8525 60.817C32.7562 61.1242 32.9438 61.1616 33.0721 61.3781C33.1704 61.5441 33.7123 61.6788 33.7123 61.6788C33.7123 61.6788 33.3601 61.8334 33.2636 61.8489C33.0321 61.8863 32.7908 61.8986 32.5641 61.8277C32.4987 61.8072 32.4111 61.7948 32.3543 61.7558C32.2711 61.6987 32.1609 61.4398 32.1429 61.5391C32.0928 61.8158 32.7499 62.5069 32.7499 62.5069C32.7499 62.5069 31.8402 62.2222 31.884 61.7843C31.8345 61.5711 31.7925 61.8561 31.7648 61.9446L31.1158 62.8599L30.9977 61.9586C30.9861 61.6679 30.4641 61.9485 30.4641 61.9485C30.4641 61.9485 30.6595 61.6334 30.6648 61.6286C30.9383 61.3855 31.0604 61.1273 31.1684 60.7825C31.2279 60.5926 31.2111 60.2068 31.2111 60.2068L29.9788 60.7473C29.9788 60.7473 30.3515 60.2102 30.7861 59.9104C31.4247 59.47 31.9465 58.2988 31.9465 58.2988C31.9465 58.2988 30.7625 59.0723 30.3932 59.1202C30.0239 59.1681 29.4569 58.977 29.4569 58.977C29.4569 58.977 30.1439 58.8336 31.0331 57.9041C32.165 57.1236 31.8978 56.4704 31.885 56.3594C30.1091 56.6344 29.4995 56.1441 29.4995 56.1441C29.4995 56.1441 30.7169 55.8133 30.7737 55.791C31.1408 55.6471 31.6053 55.3958 31.936 55.1667C32.1431 55.0231 30.5706 54.3956 30.5706 54.3956C30.5706 54.3956 31.7411 54.176 32.0669 53.9373C32.3928 53.6987 32.5099 53.7628 32.6653 53.56C32.736 53.4717 32.8903 53.323 32.6853 53.3561C32.0558 53.4577 30.6346 53.6084 30.6346 53.6084C30.6346 53.6084 30.7354 53.3173 31.2933 53.1307C31.8512 52.9441 32.3776 52.8372 32.6537 52.515C32.8565 52.2785 32.0249 52.5928 31.7191 52.5331C31.5355 52.4973 31.3691 52.4887 31.1893 52.4207C31.1893 52.4207 32.3219 51.9639 32.7565 51.6204C32.8631 51.5646 33.0703 51.1309 33.1956 51.132C33.3393 51.1334 33.4916 51.2057 33.6281 51.2485C33.7591 51.2894 33.9139 51.3318 34.0272 51.4111C34.1555 51.501 34.2504 51.6491 34.3862 51.7234C34.5861 51.8327 34.8891 51.7654 35.0993 51.7209L35.1023 51.7203C35.2541 51.6881 35.3077 51.6767 35.464 51.7256C35.547 51.7516 35.7961 51.782 35.8377 51.8615Z" fill="#FFC1AD"/>
<path d="M36.9828 53.3921C36.3151 53.1832 36.1285 52.417 35.8377 51.8615C35.7961 51.782 35.547 51.7516 35.464 51.7256C35.3077 51.6767 35.2541 51.6881 35.1023 51.7203L35.0993 51.7209C34.8891 51.7654 34.5861 51.8327 34.3862 51.7234C34.2504 51.6491 34.1555 51.501 34.0272 51.4111C33.9139 51.3318 33.7591 51.2894 33.6281 51.2485C33.4916 51.2057 33.3393 51.1334 33.1956 51.132C33.0703 51.1309 32.8631 51.5646 32.7565 51.6204C32.3219 51.9639 31.1893 52.4207 31.1893 52.4207C31.3691 52.4887 31.5355 52.4973 31.7191 52.5331C32.0249 52.5928 32.8565 52.2785 32.6537 52.515C32.3776 52.8372 31.8512 52.9441 31.2933 53.1307C30.7354 53.3173 30.6346 53.6084 30.6346 53.6084C30.6346 53.6084 32.0558 53.4577 32.6853 53.3561C32.8903 53.323 32.736 53.4717 32.6653 53.56C32.5099 53.7628 32.3928 53.6987 32.0669 53.9373C31.7411 54.176 30.5706 54.3956 30.5706 54.3956C30.5706 54.3956 32.1431 55.0231 31.936 55.1667C31.6053 55.3958 31.1408 55.6471 30.7737 55.791C30.7169 55.8133 29.4995 56.1441 29.4995 56.1441C29.4995 56.1441 30.1091 56.6344 31.885 56.3594C31.8978 56.4704 32.165 57.1236 31.0331 57.9041C30.1439 58.8336 29.4569 58.977 29.4569 58.977C29.4569 58.977 30.0239 59.1681 30.3932 59.1202C30.7625 59.0723 31.9465 58.2988 31.9465 58.2988C31.9465 58.2988 31.4247 59.47 30.7861 59.9104C30.3515 60.2102 29.9788 60.7473 29.9788 60.7473L31.2111 60.2068C31.2111 60.2068 31.2279 60.5926 31.1684 60.7825C31.0604 61.1273 30.9383 61.3855 30.6648 61.6286C30.6595 61.6334 30.4641 61.9485 30.4641 61.9485C30.4641 61.9485 30.9861 61.6679 30.9977 61.9586L31.1158 62.8599L31.7648 61.9446C31.7925 61.8561 31.8345 61.5711 31.884 61.7843C31.8402 62.2222 32.7499 62.5069 32.7499 62.5069C32.7499 62.5069 32.0928 61.8158 32.1429 61.5391C32.1609 61.4398 32.2711 61.6987 32.3543 61.7558C32.4111 61.7948 32.4987 61.8072 32.5641 61.8277C32.7908 61.8986 33.0321 61.8863 33.2636 61.8489C33.3601 61.8334 33.7123 61.6788 33.7123 61.6788C33.7123 61.6788 33.1704 61.5441 33.0721 61.3781C32.9438 61.1616 32.7562 61.1242 32.8525 60.817C32.8846 60.7143 33.1133 60.9268 33.2331 60.9643C33.5337 61.0584 34.1665 61.0305 34.1665 61.0305C34.1665 61.0305 33.8918 60.8024 33.7865 60.7109L33.7858 60.7103C33.6954 60.6318 33.0777 60.0949 33.3641 59.9451C33.4224 59.9147 33.7004 60.1507 33.7871 60.1779C34.1383 60.2877 35.0552 60.0975 35.0552 60.0975L34.2188 59.529C33.7451 59.1377 33.832 58.8041 33.8245 58.3954C33.8193 58.1131 33.9147 58.1946 34.074 58.3606C34.1777 58.4686 34.2226 58.52 34.38 58.5692C34.5308 58.6164 34.5444 58.6372 34.6992 58.6691C34.8173 58.6935 35.5437 58.5381 35.5437 58.5381C35.5437 58.5381 34.4776 57.7907 34.397 57.069C34.3807 56.923 34.3045 56.3509 34.5702 56.5963C34.762 56.7733 34.8465 57.0673 35.1496 57.0912C35.5643 57.1239 36.3937 57.1574 36.3937 57.1574C36.3937 57.1574 35.8477 57.0073 35.6645 56.8101C35.5484 56.6851 35.4977 56.4779 35.4348 56.321C35.3166 56.026 35.1618 55.7737 35.1101 55.4541C35.1009 55.397 35.0071 55.0259 35.1 55.0055C35.1822 54.9875 35.234 55.1403 35.2991 55.1713C35.6318 55.33 36.1279 55.4767 36.4945 55.4231C36.5461 55.4155 36.9042 55.2376 36.9042 55.2376C36.9042 55.2376 36.5124 55.0674 36.4436 55.0245C36.0966 54.8077 35.791 54.3055 35.5576 53.9756C35.3986 53.7509 35.24 53.4011 35.2434 53.1151C35.2444 53.0289 35.2633 52.7641 35.3354 52.8115C35.8288 53.1357 36.5311 53.2452 37.0906 53.4202" stroke="#BF3F17" stroke-width="0.405544" stroke-linecap="round"/>
<path d="M49.0537 78.2069C48.6062 76.7288 48.4159 75.4528 47.0045 74.8242C46.4302 74.5685 46.0209 74.7195 45.4219 74.5285C44.8494 74.3459 44.6137 73.9937 44.0216 73.8909C42.5971 73.6438 41.8919 74.7313 40.7411 75.606C39.8013 76.3201 39.1848 76.7172 38.6075 77.7463C37.7092 79.3474 38.0716 80.6039 38.2368 82.432C38.501 85.3572 38.0789 88.658 40.905 89.4642C43.6767 90.2549 45.0127 87.3294 46.8825 85.1372C48.0816 83.7313 49.1126 82.9435 49.373 81.1147C49.5341 79.9837 49.3847 79.3003 49.0537 78.2069Z" fill="#FE521B" stroke="black" stroke-width="0.405544"/>
<path d="M46.7794 75.4835C47.1217 76.1375 47.3456 77.0308 48.0928 77.3216C47.4522 77.1415 46.7067 76.9975 46.1665 76.6425C46.0786 76.5847 46.0555 76.9077 46.0542 77.013C46.0501 77.3619 46.2436 77.7886 46.4376 78.0628C46.7223 78.4652 47.0952 79.0779 47.5186 79.3424C47.6024 79.3948 48.0804 79.6024 48.0804 79.6024C48.0804 79.6024 47.6436 79.8195 47.5806 79.8287C47.1333 79.8941 46.5281 79.7152 46.1222 79.5216C46.0427 79.4837 45.9795 79.2973 45.8793 79.3193C45.7659 79.3441 45.8804 79.7969 45.8916 79.8665C45.9547 80.2565 46.1436 80.5643 46.2878 80.9242C46.3645 81.1156 46.4264 81.3683 46.568 81.5208C46.7915 81.7614 47.4577 81.9446 47.4577 81.9446C47.4577 81.9446 46.4457 81.9037 45.9398 81.8638C45.57 81.8347 45.4669 81.476 45.233 81.26C44.9088 80.9607 45.0018 81.6586 45.0216 81.8368C45.1199 82.7173 46.4206 83.6291 46.4206 83.6291C46.4206 83.6291 45.5344 83.8187 45.3903 83.7889C45.2015 83.7499 45.1849 83.7246 45.0008 83.6671C44.8088 83.607 44.754 83.5443 44.6275 83.4125C44.4332 83.21 44.3169 83.1106 44.3232 83.455C44.3323 83.9536 44.2263 84.3606 44.8042 84.838L45.8246 85.5315C45.8246 85.5315 44.706 85.7637 44.2776 85.6296C44.1718 85.5965 43.8326 85.3085 43.7615 85.3457C43.4121 85.5284 44.1657 86.1834 44.2759 86.2792L44.2768 86.2799C44.4053 86.3916 44.7404 86.6699 44.7404 86.6699C44.7404 86.6699 43.9684 86.7038 43.6017 86.5891C43.4555 86.5434 43.1765 86.2841 43.1372 86.4093C43.0198 86.7842 43.2487 86.8298 43.4052 87.094C43.5252 87.2964 44.1863 87.4608 44.1863 87.4608C44.1863 87.4608 43.7565 87.6494 43.6388 87.6684C43.3564 87.714 43.062 87.729 42.7854 87.6424C42.7056 87.6175 42.5988 87.6023 42.5295 87.5547C42.428 87.485 42.2935 87.1692 42.2716 87.2903C42.2104 87.628 43.0121 88.471 43.0121 88.471C43.0121 88.471 41.9023 88.1238 41.9557 87.5895C41.8953 87.3294 41.8441 87.677 41.8102 87.785L41.0185 88.9017L40.8744 87.8022C40.8603 87.4475 40.2235 87.7898 40.2235 87.7898C40.2235 87.7898 40.4618 87.4054 40.4683 87.3996C40.8019 87.103 40.9509 86.7879 41.0827 86.3673C41.1553 86.1356 41.1348 85.665 41.1348 85.665L39.6314 86.3244C39.6314 86.3244 40.0861 85.6691 40.6163 85.3033C41.3953 84.766 42.032 83.3371 42.032 83.3371C42.032 83.3371 40.5875 84.2808 40.1369 84.3392C39.6864 84.3976 38.9946 84.1646 38.9946 84.1646C38.9946 84.1646 39.8328 83.9895 40.9177 82.8556C42.2986 81.9033 41.9726 81.1064 41.957 80.971C39.7903 81.3065 39.0466 80.7083 39.0466 80.7083C39.0466 80.7083 40.5318 80.3048 40.6011 80.2776C41.049 80.102 41.6157 79.7955 42.0192 79.5159C42.2719 79.3407 40.3534 78.5751 40.3534 78.5751C40.3534 78.5751 41.7813 78.3072 42.1789 78.0161C42.5764 77.7249 42.7194 77.8031 42.909 77.5557C42.9951 77.448 43.1834 77.2665 42.9333 77.3069C42.1653 77.431 40.4315 77.6147 40.4315 77.6147C40.4315 77.6147 40.5544 77.2596 41.2351 77.032C41.9157 76.8043 42.5579 76.6739 42.8948 76.2808C43.1422 75.9923 42.1276 76.3756 41.7545 76.3029C41.5305 76.2592 41.3275 76.2487 41.1082 76.1657C41.1082 76.1657 42.4899 75.6084 43.0202 75.1893C43.1503 75.1213 43.4031 74.5921 43.5559 74.5935C43.7313 74.5952 43.917 74.6834 44.0836 74.7356C44.2434 74.7856 44.4323 74.8372 44.5705 74.9341C44.727 75.0437 44.8428 75.2244 45.0085 75.315C45.2524 75.4484 45.6219 75.3663 45.8784 75.312L45.8821 75.3112C46.0673 75.2719 46.1327 75.2581 46.3234 75.3177C46.4247 75.3494 46.7286 75.3865 46.7794 75.4835Z" fill="#FFC1AD"/>
<path d="M48.1763 77.3509C47.3617 77.096 47.1341 76.1612 46.7794 75.4835C46.7286 75.3865 46.4247 75.3494 46.3234 75.3177C46.1327 75.2581 46.0673 75.2719 45.8821 75.3112L45.8784 75.312C45.6219 75.3663 45.2524 75.4484 45.0085 75.315C44.8428 75.2244 44.727 75.0437 44.5705 74.9341C44.4323 74.8372 44.2434 74.7856 44.0836 74.7356C43.917 74.6834 43.7313 74.5952 43.5559 74.5935C43.4031 74.5921 43.1503 75.1213 43.0202 75.1893C42.4899 75.6084 41.1082 76.1657 41.1082 76.1657C41.3275 76.2487 41.5305 76.2592 41.7545 76.3029C42.1276 76.3756 43.1422 75.9923 42.8948 76.2808C42.5579 76.6739 41.9157 76.8043 41.2351 77.032C40.5544 77.2596 40.4315 77.6147 40.4315 77.6147C40.4315 77.6147 42.1653 77.431 42.9333 77.3069C43.1834 77.2665 42.9951 77.448 42.909 77.5557C42.7194 77.8031 42.5764 77.7249 42.1789 78.0161C41.7813 78.3072 40.3534 78.5751 40.3534 78.5751C40.3534 78.5751 42.2719 79.3407 42.0192 79.5159C41.6157 79.7955 41.049 80.102 40.6011 80.2776C40.5318 80.3048 39.0466 80.7083 39.0466 80.7083C39.0466 80.7083 39.7903 81.3065 41.957 80.971C41.9726 81.1064 42.2986 81.9033 40.9177 82.8556C39.8328 83.9895 38.9946 84.1646 38.9946 84.1646C38.9946 84.1646 39.6864 84.3976 40.1369 84.3392C40.5875 84.2808 42.032 83.3371 42.032 83.3371C42.032 83.3371 41.3953 84.766 40.6163 85.3033C40.0861 85.6691 39.6314 86.3244 39.6314 86.3244L41.1348 85.665C41.1348 85.665 41.1553 86.1356 41.0827 86.3673C40.9509 86.7879 40.8019 87.103 40.4683 87.3996C40.4618 87.4054 40.2235 87.7898 40.2235 87.7898C40.2235 87.7898 40.8603 87.4475 40.8744 87.8022L41.0185 88.9017L41.8102 87.785C41.8441 87.677 41.8953 87.3294 41.9557 87.5895C41.9023 88.1238 43.0121 88.471 43.0121 88.471C43.0121 88.471 42.2104 87.628 42.2716 87.2903C42.2935 87.1692 42.428 87.485 42.5295 87.5547C42.5988 87.6023 42.7056 87.6175 42.7854 87.6424C43.062 87.729 43.3564 87.714 43.6388 87.6684C43.7565 87.6494 44.1863 87.4608 44.1863 87.4608C44.1863 87.4608 43.5252 87.2964 43.4052 87.094C43.2487 86.8298 43.0198 86.7842 43.1372 86.4093C43.1765 86.2841 43.4555 86.5434 43.6017 86.5891C43.9684 86.7038 44.7404 86.6699 44.7404 86.6699C44.7404 86.6699 44.4053 86.3916 44.2768 86.2799L44.2759 86.2792C44.1657 86.1834 43.4121 85.5284 43.7615 85.3457C43.8326 85.3085 44.1718 85.5965 44.2775 85.6296C44.706 85.7637 45.8246 85.5315 45.8246 85.5315L44.8042 84.838C44.2263 84.3606 44.3323 83.9536 44.3232 83.455C44.3169 83.1106 44.4332 83.21 44.6275 83.4125C44.754 83.5443 44.8088 83.607 45.0008 83.6671C45.1849 83.7246 45.2015 83.7499 45.3903 83.7889C45.5344 83.8187 46.4206 83.6291 46.4206 83.6291C46.4206 83.6291 45.1199 82.7173 45.0216 81.8368C45.0018 81.6586 44.9088 80.9607 45.233 81.26C45.4669 81.476 45.57 81.8347 45.9398 81.8638C46.4457 81.9037 47.4577 81.9446 47.4577 81.9446C47.4577 81.9446 46.7915 81.7614 46.568 81.5208C46.4264 81.3683 46.3645 81.1156 46.2878 80.9242C46.1436 80.5643 45.9547 80.2565 45.8916 79.8665C45.8804 79.7969 45.7659 79.3441 45.8793 79.3193C45.9795 79.2973 46.0427 79.4837 46.1222 79.5216C46.5281 79.7152 47.1333 79.8941 47.5806 79.8287C47.6436 79.8195 48.0804 79.6024 48.0804 79.6024C48.0804 79.6024 47.6024 79.3948 47.5186 79.3424C47.0952 79.0779 46.7223 78.4652 46.4376 78.0628C46.2436 77.7886 46.0501 77.3619 46.0542 77.013C46.0555 76.9077 46.0786 76.5847 46.1665 76.6425C46.7685 77.0381 47.6252 77.1716 48.3079 77.3852" stroke="#BF3F17" stroke-width="0.405544" stroke-linecap="round"/>
<path d="M37.6866 37.5113C37.8005 37.4382 37.933 37.3993 38.0684 37.3993H51.1091C51.8149 37.3993 52.0849 38.3199 51.4909 38.7011L45.4937 42.5503C45.3798 42.6235 45.2473 42.6623 45.1119 42.6623H32.0712C31.3654 42.6623 31.0954 41.7418 31.6894 41.3605L37.6866 37.5113Z" fill="#C7E8EF" stroke="black" stroke-width="0.405544"/>
<path d="M45.3786 41.9266C45.1661 42.0545 45.0361 42.2843 45.0361 42.5323L45.0361 56.5217C45.0361 57.0716 45.6363 57.411 46.1075 57.1275L52.0455 53.5546C52.258 53.4268 52.3879 53.1969 52.3879 52.9489L52.3879 38.9595C52.3879 38.4096 51.7877 38.0703 51.3166 38.3537L45.3786 41.9266Z" fill="#C7E8EF" stroke="black" stroke-width="0.405544"/>
<rect x="30.6504" y="41.7793" width="15.6226" height="15.6125" rx="2.12072" fill="#C7E8EF" stroke="black" stroke-width="0.405544"/>
<path d="M44.9443 85.9478C45.0513 85.8792 45.1757 85.8427 45.3029 85.8427H57.5508C58.2136 85.8427 58.4672 86.7073 57.9094 87.0653L52.2768 90.6805C52.1698 90.7492 52.0453 90.7857 51.9182 90.7857H39.6703C39.0074 90.7857 38.7538 89.9211 39.3117 89.5631L44.9443 85.9478Z" fill="#C7E8EF" stroke="black" stroke-width="0.405544"/>
<path d="M52.1693 90.0944C51.9697 90.2145 51.8477 90.4304 51.8477 90.6633L51.8477 103.802C51.8477 104.319 52.4114 104.637 52.8539 104.371L58.4309 101.015C58.6305 100.895 58.7525 100.679 58.7525 100.447L58.7525 87.3076C58.7525 86.7912 58.1888 86.4725 57.7463 86.7387L52.1693 90.0944Z" fill="#C7E8EF" stroke="black" stroke-width="0.405544"/>
<rect x="38.3364" y="89.9562" width="14.6728" height="14.6633" rx="1.99178" fill="#C7E8EF" stroke="black" stroke-width="0.405544"/>
<path d="M29.5767 61.7801C29.4853 61.7215 29.3791 61.6903 29.2705 61.6903H18.8126C18.2466 61.6903 18.03 62.4286 18.5063 62.7343L23.3158 65.8212C23.4071 65.8798 23.5134 65.911 23.622 65.911H34.0799C34.6459 65.911 34.8625 65.1727 34.3861 64.867L29.5767 61.7801Z" fill="#C7E8EF" stroke="black" stroke-width="0.405544"/>
<path d="M23.408 65.3209C23.5784 65.4235 23.6826 65.6078 23.6826 65.8067L23.6826 77.0255C23.6826 77.4664 23.2013 77.7386 22.8234 77.5112L18.0615 74.646C17.8911 74.5434 17.7868 74.3591 17.7868 74.1602L17.7868 62.9414C17.7868 62.5005 18.2682 62.2283 18.646 62.4557L23.408 65.3209Z" fill="#C7E8EF" stroke="black" stroke-width="0.405544"/>
<rect width="12.5285" height="12.5204" rx="1.7007" transform="matrix(-1 0 0 1 35.2188 65.203)" fill="#C7E8EF" stroke="black" stroke-width="0.405544"/>
<path d="M20.0502 83.8715C18.7911 84.3414 19.4637 87.2605 19.4637 87.2605C19.4637 87.2605 18.3361 88.0321 18.4958 88.9726C18.6554 89.913 19.3478 90.5696 19.3478 90.5696C19.3478 90.5696 18.1685 91.8791 18.4597 92.7519C18.7348 93.5769 20.3149 93.9854 20.3149 93.9854C20.3149 93.9854 18.8068 95.4575 19.0982 96.5137C19.3785 97.5294 21.2996 98.0755 21.2996 98.0755C21.2996 98.0755 20.4093 99.3273 20.6778 100.116C20.9582 100.939 22.5331 101.349 22.5331 101.349C22.5331 101.349 21.7262 102.766 21.787 103.798C21.8477 104.83 23.8463 105.093 23.8463 105.093C23.8463 105.093 22.3668 106.992 22.9444 108.053C23.5125 109.098 25.858 108.94 25.858 108.94C25.858 108.94 25.2483 111.006 25.9872 111.979C26.7364 112.966 29.3259 112.705 29.3259 112.705C29.3259 112.705 31.0398 114.937 32.2296 114.387C33.3142 113.886 33.1209 111.462 33.1209 111.462C33.1209 111.462 35.7049 109.865 35.5251 108.344C35.3781 107.1 33.4429 106.112 33.4429 106.112C33.4429 106.112 34.4377 104.053 33.9813 103.152C33.5338 102.268 31.4477 102.163 31.4477 102.163L31.842 100.392C31.4201 99.541 29.9017 99.1326 29.9017 99.1326C29.9017 99.1326 30.6157 97.5856 30.1773 96.7639C29.7389 95.9421 28.0558 95.6723 28.0558 95.6723C28.0558 95.6723 28.907 94.2075 28.5355 93.3657C28.1264 92.4385 26.2098 92.212 26.2098 92.212C26.2098 92.212 27.2449 90.8139 26.8937 89.9676C26.5368 89.1073 24.7722 88.876 24.7722 88.876C24.7722 88.876 25.0408 87.6568 24.6571 87.0573C24.2057 86.3521 22.6775 86.2319 22.6775 86.2319C22.6775 86.2319 21.3427 83.3892 20.0502 83.8715Z" fill="#237A2C" stroke="black" stroke-width="0.405544"/>
<path d="M20.1016 83.8983L31.9762 114.311" stroke="#005108" stroke-width="0.405544"/>
<path d="M19.2379 96.072L24.5804 95.7475L28.1788 92.97" stroke="#005108" stroke-width="0.405544"/>
<path d="M18.4449 92.4271L23.1324 91.8762L26.5527 89.7175" stroke="#005108" stroke-width="0.405544"/>
<path d="M18.4852 88.6908L21.8872 88.6801L24.5835 86.7579" stroke="#005108" stroke-width="0.405544"/>
<path d="M20.7498 100.082L26.069 99.6252L29.7721 96.4331" stroke="#005108" stroke-width="0.405544"/>
<path d="M21.8302 103.813L27.471 102.931L31.7307 100.337" stroke="#005108" stroke-width="0.405544"/>
<path d="M22.9922 106.997L28.9664 106.766L33.7024 102.996" stroke="#005108" stroke-width="0.405544"/>
<path d="M25.6166 111.344L30.4771 111.077L35.1926 107.734" stroke="#005108" stroke-width="0.405544"/>
<path d="M57.4131 123.602C56.4971 122.403 53.5772 124.078 53.5772 124.078C53.5772 124.078 52.3795 123.118 51.4202 123.597C50.4609 124.075 49.9806 125.033 49.9806 125.033C49.9806 125.033 48.1877 124.193 47.344 124.791C46.5465 125.355 46.6226 127.185 46.6226 127.185C46.6226 127.185 44.5475 126.046 43.5068 126.703C42.5059 127.336 42.5452 129.577 42.5452 129.577C42.5452 129.577 40.9085 129.029 40.1481 129.575C39.3542 130.145 39.4267 131.97 39.4267 131.97C39.4267 131.97 37.64 131.565 36.5502 131.967C35.4603 132.369 35.8286 134.602 35.8286 134.602C35.8286 134.602 33.3043 133.632 32.351 134.598C31.4133 135.549 32.3479 138.017 32.3479 138.017C32.3479 138.017 29.9276 138.036 29.1218 139.147C28.3048 140.274 29.4307 142.97 29.4307 142.97C29.4307 142.97 27.5887 145.539 28.5681 146.637C29.4609 147.639 32.0046 146.64 32.0046 146.64C32.0046 146.64 34.5647 148.895 36.1426 148.205C37.432 147.642 37.8636 145.241 37.8636 145.241C37.8636 145.241 40.402 145.638 41.2224 144.854C42.0268 144.085 41.4595 141.81 41.4595 141.81L43.4928 141.656C44.2704 140.925 44.2143 139.161 44.2143 139.161C44.2143 139.161 46.1108 139.423 46.8516 138.684C47.5924 137.946 47.3335 136.05 47.3335 136.05C47.3335 136.05 49.1864 136.486 49.9706 135.813C50.8342 135.071 50.4527 132.938 50.4527 132.938C50.4527 132.938 52.2938 133.594 53.0895 132.941C53.8982 132.277 53.5714 130.306 53.5714 130.306C53.5714 130.306 54.9702 130.197 55.4898 129.589C56.1009 128.874 55.7317 127.194 55.7317 127.194C55.7317 127.194 58.3534 124.833 57.4131 123.602Z" fill="#237A2C" stroke="black" stroke-width="0.405544"/>
<path d="M57.4014 123.666L28.5682 146.34" stroke="#005108" stroke-width="0.405544"/>
<path d="M44.0269 126.709L46.1186 132.341L50.2793 135.3" stroke="#005108" stroke-width="0.405544"/>
<path d="M47.6887 124.669L49.8102 129.524L53.2474 132.494" stroke="#005108" stroke-width="0.405544"/>
<path d="M51.7199 123.493L52.8411 127.143L55.7878 129.412" stroke="#005108" stroke-width="0.405544"/>
<path d="M40.2078 129.641L42.4345 135.205L47.0752 138.141" stroke="#005108" stroke-width="0.405544"/>
<path d="M36.5481 132.019L39.3371 137.79L43.5153 141.519" stroke="#005108" stroke-width="0.405544"/>
<path d="M33.5031 134.305L35.7 140.647L41.299 144.504" stroke="#005108" stroke-width="0.405544"/>
<path d="M29.684 138.542L31.5567 143.676L36.6898 147.65" stroke="#005108" stroke-width="0.405544"/>
<path d="M53.3556 97.6446C52.5243 97.1977 51.2932 98.9044 51.2932 98.9044C51.2932 98.9044 50.3633 98.6666 49.9402 99.1863C49.5172 99.706 49.4908 100.375 49.4908 100.375C49.4908 100.375 48.2527 100.36 47.9263 100.917C47.6177 101.445 48.1335 102.468 48.1335 102.468C48.1335 102.468 46.6573 102.353 46.2341 102.996C45.8271 103.614 46.4281 104.881 46.4281 104.881C46.4281 104.881 45.3543 104.991 45.062 105.498C44.7567 106.027 45.2692 107.048 45.2692 107.048C45.2692 107.048 44.1469 107.278 43.6298 107.788C43.1127 108.298 43.8987 109.475 43.8987 109.475C43.8987 109.475 42.2104 109.573 41.9168 110.37C41.6281 111.153 42.7974 112.318 42.7974 112.318C42.7974 112.318 41.4236 112.953 41.2513 113.793C41.0767 114.646 42.4139 115.891 42.4139 115.891C42.4139 115.891 42.0278 117.83 42.8693 118.203C43.6363 118.543 44.8278 117.319 44.8278 117.319C44.8278 117.319 46.8681 117.943 47.589 117.144C48.1781 116.49 47.8042 115.011 47.8042 115.011C47.8042 115.011 49.3528 114.583 49.6177 113.925C49.8775 113.279 48.9671 112.13 48.9671 112.13L50.0856 111.518C50.34 110.901 49.8527 109.911 49.8527 109.911C49.8527 109.911 51.0008 109.571 51.2321 108.959C51.4633 108.347 50.8265 107.334 50.8265 107.334C50.8265 107.334 51.9947 107.105 52.2676 106.519C52.5681 105.874 51.8003 104.758 51.8003 104.758C51.8003 104.758 53.0185 104.656 53.3031 104.079C53.5924 103.492 52.8976 102.454 52.8976 102.454C52.8976 102.454 53.6662 102.031 53.8054 101.551C53.969 100.986 53.3249 100.124 53.3249 100.124C53.3249 100.124 54.209 98.1034 53.3556 97.6446Z" fill="#237A2C" stroke="black" stroke-width="0.405544"/>
<path d="M53.3652 97.6843L42.7924 118.034" stroke="#005108" stroke-width="0.405544"/>
<path d="M46.5318 102.865L49.1772 105.535L52.3112 106.148" stroke="#005108" stroke-width="0.405544"/>
<path d="M48.0913 100.76L50.553 102.978L53.2775 103.784" stroke="#005108" stroke-width="0.405544"/>
<path d="M50.0845 99.0502L51.6654 100.841L53.9297 101.374" stroke="#005108" stroke-width="0.405544"/>
<path d="M45.1132 105.521L47.8178 108.116L51.2194 108.592" stroke="#005108" stroke-width="0.405544"/>
<path d="M43.6417 107.818L46.72 110.387L50.0628 111.434" stroke="#005108" stroke-width="0.405544"/>
<path d="M42.4976 109.906L45.3859 112.952L49.571 113.706" stroke="#005108" stroke-width="0.405544"/>
<path d="M41.4157 113.304L43.8075 115.745L47.7575 116.686" stroke="#005108" stroke-width="0.405544"/>
<circle cx="180.09" cy="28.2567" r="18.8172" transform="rotate(10.5006 180.09 28.2567)" fill="#FCFF80" stroke="black" stroke-width="0.405544"/>
<circle cx="180.09" cy="28.2569" r="17.1951" transform="rotate(10.5006 180.09 28.2569)" fill="#FEFFCD" stroke="black" stroke-width="0.405544"/>
<path d="M178.596 26.5969L166.974 23.4443C167.81 20.3621 169.836 17.7382 172.607 16.1499L178.596 26.5969Z" fill="#FCFF80" stroke="black" stroke-width="0.405544"/>
<path d="M179.665 26.166L174.086 15.4948C176.916 14.0151 180.218 13.7203 183.266 14.6752L179.665 26.166Z" fill="#FCFF80" stroke="black" stroke-width="0.405544"/>
<path d="M181.429 26.586L184.941 15.0678C187.996 15.9993 190.555 18.1061 192.057 20.9249L181.429 26.586Z" fill="#FCFF80" stroke="black" stroke-width="0.405544"/>
<path d="M182.069 27.7385L192.834 22.3408C194.265 25.1957 194.504 28.5023 193.498 31.5332L182.069 27.7385Z" fill="#FCFF80" stroke="black" stroke-width="0.405544"/>
<path d="M177.946 28.4449L166.564 24.5139C165.521 27.5325 165.721 30.8418 167.118 33.7135L177.946 28.4449Z" fill="#FCFF80" stroke="black" stroke-width="0.405544"/>
<path d="M178.588 29.4032L167.972 35.0875C169.48 37.9029 172.044 40.0042 175.101 40.929L178.588 29.4032Z" fill="#FCFF80" stroke="black" stroke-width="0.405544"/>
<path d="M180.282 30.0478L176.706 41.5464C179.756 42.4947 183.057 42.1927 185.884 40.7068L180.282 30.0478Z" fill="#FCFF80" stroke="black" stroke-width="0.405544"/>
<path d="M181.46 29.4555L187.324 39.9733C190.113 38.4182 192.171 35.8187 193.043 32.7467L181.46 29.4555Z" fill="#FCFF80" stroke="black" stroke-width="0.405544"/>
<path d="M117.092 151.255L104.809 28.8879H180.085L168.147 151.255C168.147 151.255 165.878 157.159 142.62 157.159C119.361 157.159 117.092 151.255 117.092 151.255Z" fill="#EFFCFF" stroke="black" stroke-width="0.405544"/>
<path d="M120.245 148.203L109.411 40.2263H175.808L165.278 148.203C165.278 148.203 163.277 153.412 142.762 153.412C122.247 153.412 120.245 148.203 120.245 148.203Z" fill="#50CBF1" stroke="black" stroke-width="0.405544"/>
<circle cx="152.188" cy="63.4581" r="18.8172" transform="rotate(10.5006 152.188 63.4581)" fill="#FCFF80" stroke="black" stroke-width="0.405544"/>
<circle cx="152.188" cy="63.4582" r="17.1951" transform="rotate(10.5006 152.188 63.4582)" fill="#FEFFCD" stroke="black" stroke-width="0.405544"/>
<path d="M150.694 61.7982L139.072 58.6456C139.908 55.5634 141.934 52.9395 144.705 51.3512L150.694 61.7982Z" fill="#FCFF80" stroke="black" stroke-width="0.405544"/>
<path d="M151.764 61.367L146.184 50.6958C149.014 49.2161 152.317 48.9213 155.364 49.8763L151.764 61.367Z" fill="#FCFF80" stroke="black" stroke-width="0.405544"/>
<path d="M153.527 61.7872L157.039 50.269C160.094 51.2005 162.654 53.3073 164.155 56.126L153.527 61.7872Z" fill="#FCFF80" stroke="black" stroke-width="0.405544"/>
<path d="M154.168 62.9397L164.932 57.542C166.363 60.3969 166.602 63.7034 165.596 66.7344L154.168 62.9397Z" fill="#FCFF80" stroke="black" stroke-width="0.405544"/>
<path d="M150.044 63.646L138.662 59.715C137.62 62.7337 137.819 66.0429 139.217 68.9147L150.044 63.646Z" fill="#FCFF80" stroke="black" stroke-width="0.405544"/>
<path d="M150.686 64.6044L140.07 70.2887C141.578 73.1041 144.142 75.2054 147.199 76.1302L150.686 64.6044Z" fill="#FCFF80" stroke="black" stroke-width="0.405544"/>
<path d="M152.38 65.249L148.805 76.7476C151.854 77.6959 155.156 77.3939 157.983 75.908L152.38 65.249Z" fill="#FCFF80" stroke="black" stroke-width="0.405544"/>
<path d="M153.558 64.6568L159.422 75.1745C162.211 73.6195 164.269 71.02 165.142 67.948L153.558 64.6568Z" fill="#FCFF80" stroke="black" stroke-width="0.405544"/>
<path fill-rule="evenodd" clip-rule="evenodd" d="M115.204 55.9094L113.827 51.0713L117.401 48.3376L113.49 47.8164L113.656 43.4408L118.238 42.5427L115.996 39.6117L119.268 36.2599L122.64 37.9292L123.145 34.1444L127.645 34.1021L128.427 37.8658L131.625 34.3437L136.15 37.0012L135.721 40.2182L131.588 43.934C129.568 42.2432 126.577 42.113 124.396 43.7807C121.967 45.6388 121.428 49.0525 123.108 51.5587L119.692 54.6297L115.204 55.9094Z" fill="#FFE871"/>
<path d="M113.827 51.0713L113.704 50.9102L113.594 50.9941L113.632 51.1268L113.827 51.0713ZM115.204 55.9094L115.009 55.9649L115.065 56.16L115.26 56.1044L115.204 55.9094ZM117.401 48.3376L117.524 48.4987L117.913 48.2013L117.428 48.1366L117.401 48.3376ZM113.49 47.8164L113.288 47.8087L113.281 47.993L113.464 48.0174L113.49 47.8164ZM113.656 43.4408L113.617 43.2418L113.46 43.2727L113.454 43.4331L113.656 43.4408ZM118.238 42.5427L118.277 42.7417L118.597 42.6788L118.399 42.4195L118.238 42.5427ZM115.996 39.6117L115.851 39.4701L115.729 39.5956L115.835 39.7349L115.996 39.6117ZM119.268 36.2599L119.358 36.0782L119.226 36.0128L119.123 36.1182L119.268 36.2599ZM122.64 37.9292L122.551 38.1109L122.804 38.2364L122.841 37.956L122.64 37.9292ZM123.145 34.1444L123.143 33.9416L122.967 33.9433L122.944 34.1176L123.145 34.1444ZM127.645 34.1021L127.843 34.0608L127.809 33.8978L127.643 33.8993L127.645 34.1021ZM128.427 37.8658L128.228 37.9071L128.309 38.2968L128.577 38.0021L128.427 37.8658ZM131.625 34.3437L131.728 34.1688L131.586 34.0854L131.475 34.2074L131.625 34.3437ZM136.15 37.0012L136.351 37.0279L136.369 36.8945L136.253 36.8263L136.15 37.0012ZM135.721 40.2182L135.857 40.369L135.912 40.3191L135.922 40.245L135.721 40.2182ZM131.588 43.934L131.458 44.0895L131.593 44.2024L131.724 44.0848L131.588 43.934ZM123.108 51.5587L123.244 51.7095L123.374 51.5919L123.277 51.4458L123.108 51.5587ZM119.692 54.6297L119.748 54.8247L119.793 54.8118L119.828 54.7805L119.692 54.6297ZM113.632 51.1268L115.009 55.9649L115.399 55.8539L114.022 51.0157L113.632 51.1268ZM117.278 48.1766L113.704 50.9102L113.95 51.2323L117.524 48.4987L117.278 48.1766ZM113.464 48.0174L117.374 48.5386L117.428 48.1366L113.517 47.6154L113.464 48.0174ZM113.454 43.4331L113.288 47.8087L113.693 47.8241L113.859 43.4484L113.454 43.4331ZM118.199 42.3437L113.617 43.2418L113.695 43.6397L118.277 42.7417L118.199 42.3437ZM115.835 39.7349L118.077 42.6658L118.399 42.4195L116.157 39.4885L115.835 39.7349ZM119.123 36.1182L115.851 39.4701L116.141 39.7533L119.413 36.4015L119.123 36.1182ZM122.73 37.7475L119.358 36.0782L119.178 36.4416L122.551 38.1109L122.73 37.7475ZM122.944 34.1176L122.439 37.9024L122.841 37.956L123.346 34.1712L122.944 34.1176ZM127.643 33.8993L123.143 33.9416L123.147 34.3472L127.646 34.3048L127.643 33.8993ZM128.626 37.8245L127.843 34.0608L127.446 34.1434L128.228 37.9071L128.626 37.8245ZM131.475 34.2074L128.277 37.7295L128.577 38.0021L131.775 34.48L131.475 34.2074ZM136.253 36.8263L131.728 34.1688L131.522 34.5185L136.047 37.176L136.253 36.8263ZM135.922 40.245L136.351 37.0279L135.949 36.9744L135.52 40.1914L135.922 40.245ZM131.724 44.0848L135.857 40.369L135.586 40.0674L131.453 43.7832L131.724 44.0848ZM124.52 43.9417C126.623 42.333 129.509 42.4583 131.458 44.0895L131.719 43.7785C129.627 42.0282 126.531 41.8931 124.273 43.6196L124.52 43.9417ZM123.277 51.4458C121.656 49.028 122.176 45.7344 124.52 43.9417L124.273 43.6196C121.758 45.5432 121.2 49.0771 122.94 51.6716L123.277 51.4458ZM119.828 54.7805L123.244 51.7095L122.973 51.4079L119.557 54.4789L119.828 54.7805ZM115.26 56.1044L119.748 54.8247L119.637 54.4347L115.149 55.7144L115.26 56.1044Z" fill="black"/>
<path d="M121.943 50.6152L116.113 53.8652L115.722 51.3944L121.943 50.6152Z" fill="#FF6B00" stroke="#FFC804" stroke-width="0.405544"/>
<path d="M129.859 42.1975L134.522 37.4221L132.24 36.3978L129.859 42.1975Z" fill="#FF6B00" stroke="#FFC804" stroke-width="0.405544"/>
<path d="M121.94 46.1249L115.297 46.7739L115.927 44.3528L121.94 46.1249Z" fill="white" stroke="#FFC804" stroke-width="0.405544"/>
<path d="M122.966 43.5269L120.028 37.7854L118.472 39.1672L122.966 43.5269Z" fill="#FF6B00" stroke="#FFC804" stroke-width="0.405544"/>
<path d="M126.652 42.2191L126.184 35.7866L124.213 36.453L126.652 42.2191Z" fill="white" stroke="#FFC804" stroke-width="0.405544"/>
<path d="M163.718 37.8853C163.626 37.8267 163.52 37.7955 163.412 37.7955H152.954C152.388 37.7955 152.171 38.5338 152.647 38.8395L157.457 41.9264C157.548 41.985 157.655 42.0162 157.763 42.0162H168.221C168.787 42.0162 169.004 41.278 168.527 40.9722L163.718 37.8853Z" fill="#C7E8EF" stroke="black" stroke-width="0.405544"/>
<path d="M157.549 41.426C157.72 41.5286 157.824 41.7129 157.824 41.9118L157.824 53.1306C157.824 53.5715 157.342 53.8437 156.965 53.6163L152.203 50.7511C152.032 50.6485 151.928 50.4642 151.928 50.2653L151.928 39.0465C151.928 38.6056 152.409 38.3334 152.787 38.5608L157.549 41.426Z" fill="#C7E8EF" stroke="black" stroke-width="0.405544"/>
<rect width="12.5285" height="12.5204" rx="1.7007" transform="matrix(-1 0 0 1 169.36 41.308)" fill="#C7E8EF" stroke="black" stroke-width="0.405544"/>
<path d="M136.011 80.8951C136.125 80.822 136.258 80.7831 136.393 80.7831H149.434C150.14 80.7831 150.41 81.7037 149.816 82.0849L143.818 85.9341C143.705 86.0072 143.572 86.0461 143.437 86.0461H130.396C129.69 86.0461 129.42 85.1255 130.014 84.7443L136.011 80.8951Z" fill="#C7E8EF" stroke="black" stroke-width="0.405544"/>
<path d="M143.704 85.3103C143.491 85.4381 143.361 85.668 143.361 85.916L143.361 99.9054C143.361 100.455 143.962 100.795 144.433 100.511L150.371 96.9383C150.583 96.8104 150.713 96.5806 150.713 96.3326L150.713 82.3431C150.713 81.7933 150.113 81.4539 149.642 81.7374L143.704 85.3103Z" fill="#C7E8EF" stroke="black" stroke-width="0.405544"/>
<rect x="128.975" y="85.1631" width="15.6226" height="15.6125" rx="2.12072" fill="#C7E8EF" stroke="black" stroke-width="0.405544"/>
<path fill-rule="evenodd" clip-rule="evenodd" d="M121.259 93.3468C120.89 93.9915 120.554 94.665 120.257 95.3659C116.193 104.931 120.654 115.979 130.219 120.042C139.141 123.832 149.354 120.206 153.984 111.939L121.259 93.3468Z" fill="#FCFF80"/>
<path d="M121.259 93.3468L121.359 93.1705L121.183 93.0707L121.083 93.246L121.259 93.3468ZM153.984 111.939L154.161 112.038L154.259 111.862L154.084 111.762L153.984 111.939ZM120.443 95.4452C120.738 94.7517 121.069 94.0854 121.435 93.4476L121.083 93.246C120.71 93.8976 120.371 94.5783 120.07 95.2866L120.443 95.4452ZM130.298 119.856C120.836 115.836 116.424 104.907 120.443 95.4452L120.07 95.2866C115.963 104.955 120.471 116.122 130.14 120.229L130.298 119.856ZM153.807 111.84C149.227 120.018 139.124 123.605 130.298 119.856L130.14 120.229C139.158 124.06 149.481 120.395 154.161 112.038L153.807 111.84ZM154.084 111.762L121.359 93.1705L121.159 93.5231L153.884 112.115L154.084 111.762Z" fill="black"/>
<path fill-rule="evenodd" clip-rule="evenodd" d="M122.67 94.1479C122.331 94.7392 122.023 95.357 121.75 96.0001C118.037 104.741 122.112 114.836 130.853 118.549C139.009 122.014 148.344 118.697 152.574 111.137L122.67 94.1479Z" fill="#FEFFCD"/>
<path d="M122.67 94.1479L122.77 93.9716L122.594 93.8719L122.494 94.047L122.67 94.1479ZM152.574 111.137L152.751 111.236L152.849 111.06L152.674 110.961L152.574 111.137ZM121.936 96.0794C122.206 95.4437 122.51 94.8331 122.846 94.2488L122.494 94.047C122.151 94.6453 121.839 95.2703 121.563 95.9208L121.936 96.0794ZM130.932 118.363C122.295 114.694 118.267 104.717 121.936 96.0794L121.563 95.9208C117.806 104.765 121.93 114.979 130.774 118.736L130.932 118.363ZM152.397 111.038C148.217 118.509 138.992 121.786 130.932 118.363L130.774 118.736C139.026 122.241 148.471 118.885 152.751 111.236L152.397 111.038ZM152.674 110.961L122.77 93.9716L122.57 94.3242L152.473 111.313L152.674 110.961Z" fill="black"/>
<path d="M138.422 105.264L149.084 110.86C147.6 113.688 145.054 115.811 142.004 116.761L138.422 105.264Z" fill="#FCFF80" stroke="black" stroke-width="0.405544"/>
<path d="M137.284 105.454L140.418 117.08C137.334 117.911 134.047 117.484 131.279 115.891L137.284 105.454Z" fill="#FCFF80" stroke="black" stroke-width="0.405544"/>
<path d="M135.653 104.661L129.729 115.145C126.948 113.573 124.906 110.962 124.051 107.885L135.653 104.661Z" fill="#FCFF80" stroke="black" stroke-width="0.405544"/>
<path d="M135.278 103.397L123.6 106.334C122.821 103.237 123.304 99.9573 124.943 97.2165L135.278 103.397Z" fill="#FCFF80" stroke="black" stroke-width="0.405544"/>
<path d="M123.122 60.6094C123.229 60.5419 123.352 60.506 123.478 60.506H134.948C135.612 60.506 135.865 61.3742 135.303 61.7304L130.091 65.0398C129.985 65.1074 129.861 65.1433 129.735 65.1433H118.266C117.601 65.1433 117.349 64.2751 117.91 63.9188L123.122 60.6094Z" fill="#C7E8EF" stroke="black" stroke-width="0.405544"/>
<path d="M130.001 64.4832C129.8 64.6029 129.677 64.8197 129.677 65.0538L129.677 77.2885C129.677 77.8035 130.238 78.1224 130.68 77.859L135.901 74.7517C136.102 74.632 136.225 74.4153 136.225 74.1812L136.225 61.9465C136.225 61.4315 135.664 61.1126 135.222 61.376L130.001 64.4832Z" fill="#C7E8EF" stroke="black" stroke-width="0.405544"/>
<rect x="116.863" y="64.3651" width="13.9151" height="13.7563" rx="1.99178" fill="#C7E8EF" stroke="black" stroke-width="0.405544"/>
<path fill-rule="evenodd" clip-rule="evenodd" d="M139.862 89.8932L144.008 87.0444L147.739 89.5601L146.986 85.6872L151.186 84.4487L153.498 88.5045L155.561 85.4451L159.781 87.4766L159.275 91.2056L163.023 90.4765L164.498 94.7276L161.181 96.6696L165.539 98.5771L164.464 103.713L161.278 104.333L156.438 101.602C157.396 99.1472 156.565 96.2711 154.289 94.7365C151.753 93.0265 148.346 93.6046 146.507 95.9963L142.507 93.7386L139.862 89.8932Z" fill="#FFE871"/>
<path d="M144.008 87.0444L144.122 86.8763L144.007 86.7992L143.893 86.8773L144.008 87.0444ZM139.862 89.8932L139.747 89.7261L139.58 89.841L139.695 90.0081L139.862 89.8932ZM147.739 89.5601L147.626 89.7282L148.032 90.0019L147.938 89.5214L147.739 89.5601ZM146.986 85.6872L146.928 85.4927L146.751 85.5449L146.787 85.7259L146.986 85.6872ZM151.186 84.4487L151.362 84.3482L151.282 84.2088L151.128 84.2542L151.186 84.4487ZM153.498 88.5045L153.322 88.6049L153.484 88.8886L153.666 88.6179L153.498 88.5045ZM155.561 85.4451L155.649 85.2624L155.491 85.1863L155.393 85.3317L155.561 85.4451ZM159.781 87.4766L159.982 87.5039L160.002 87.3578L159.869 87.2939L159.781 87.4766ZM159.275 91.2056L159.074 91.1784L159.036 91.4587L159.314 91.4047L159.275 91.2056ZM163.023 90.4765L163.215 90.41L163.157 90.2438L162.984 90.2774L163.023 90.4765ZM164.498 94.7276L164.601 94.9026L164.745 94.8184L164.69 94.6611L164.498 94.7276ZM161.181 96.6696L161.079 96.4946L160.735 96.6958L161.1 96.8554L161.181 96.6696ZM165.539 98.5771L165.738 98.6186L165.771 98.4574L165.62 98.3913L165.539 98.5771ZM164.464 103.713L164.503 103.912L164.635 103.887L164.662 103.755L164.464 103.713ZM161.278 104.333L161.178 104.51L161.243 104.547L161.317 104.532L161.278 104.333ZM156.438 101.602L156.249 101.528L156.185 101.692L156.339 101.778L156.438 101.602ZM146.507 95.9963L146.407 96.1729L146.56 96.2594L146.668 96.12L146.507 95.9963ZM142.507 93.7386L142.34 93.8535L142.366 93.8922L142.407 93.9152L142.507 93.7386ZM143.893 86.8773L139.747 89.7261L139.977 90.0604L144.123 87.2116L143.893 86.8773ZM147.853 89.392L144.122 86.8763L143.895 87.2126L147.626 89.7282L147.853 89.392ZM146.787 85.7259L147.54 89.5988L147.938 89.5214L147.185 85.6485L146.787 85.7259ZM151.128 84.2542L146.928 85.4927L147.043 85.8817L151.243 84.6432L151.128 84.2542ZM153.674 88.4041L151.362 84.3482L151.01 84.5491L153.322 88.6049L153.674 88.4041ZM155.393 85.3317L153.33 88.3911L153.666 88.6179L155.729 85.5585L155.393 85.3317ZM159.869 87.2939L155.649 85.2624L155.473 85.6278L159.693 87.6593L159.869 87.2939ZM159.476 91.2329L159.982 87.5039L159.58 87.4493L159.074 91.1784L159.476 91.2329ZM162.984 90.2774L159.236 91.0066L159.314 91.4047L163.062 90.6755L162.984 90.2774ZM164.69 94.6611L163.215 90.41L162.832 90.5429L164.307 94.7941L164.69 94.6611ZM161.283 96.8446L164.601 94.9026L164.396 94.5526L161.079 96.4946L161.283 96.8446ZM165.62 98.3913L161.262 96.4839L161.1 96.8554L165.458 98.7628L165.62 98.3913ZM164.662 103.755L165.738 98.6186L165.341 98.5355L164.265 103.672L164.662 103.755ZM161.317 104.532L164.503 103.912L164.425 103.514L161.239 104.134L161.317 104.532ZM156.339 101.778L161.178 104.51L161.378 104.157L156.538 101.425L156.339 101.778ZM154.176 94.9046C156.372 96.3851 157.173 99.1599 156.249 101.528L156.627 101.675C157.619 99.1345 156.759 96.1572 154.403 94.5684L154.176 94.9046ZM146.668 96.12C148.442 93.8126 151.729 93.2549 154.176 94.9046L154.403 94.5684C151.777 92.7982 148.25 93.3967 146.346 95.8727L146.668 96.12ZM142.407 93.9152L146.407 96.1729L146.607 95.8198L142.606 93.5621L142.407 93.9152ZM139.695 90.0081L142.34 93.8535L142.674 93.6237L140.029 89.7783L139.695 90.0081Z" fill="black"/>
<path d="M147.03 94.5912L142.09 90.1024L144.307 88.9438L147.03 94.5912Z" fill="#FF6B00" stroke="#FFC804" stroke-width="0.405544"/>
<path d="M157.533 99.4082L163.546 102.305L163.789 99.8151L157.533 99.4082Z" fill="#FF6B00" stroke="#FFC804" stroke-width="0.405544"/>
<path d="M151.284 93.1564L148.55 87.0674L151.045 86.8915L151.284 93.1564Z" fill="white" stroke="#FFC804" stroke-width="0.405544"/>
<path d="M154.074 93.2992L158.578 88.6835L156.773 87.6499L154.074 93.2992Z" fill="#FF6B00" stroke="#FFC804" stroke-width="0.405544"/>
<path d="M156.489 96.3759L162.436 93.8804L161.176 92.2248L156.489 96.3759Z" fill="white" stroke="#FFC804" stroke-width="0.405544"/>
<circle cx="76.2807" cy="191.974" r="18.8172" transform="rotate(10.5006 76.2807 191.974)" fill="#B6EF6E" stroke="black" stroke-width="0.405544"/>
<circle cx="76.2807" cy="191.974" r="17.1951" transform="rotate(10.5006 76.2807 191.974)" fill="#F2FFCD" stroke="black" stroke-width="0.405544"/>
<path d="M74.786 190.314L63.1643 187.161C64.0005 184.079 66.0268 181.455 68.7975 179.867L74.786 190.314Z" fill="#B6EF6E" stroke="black" stroke-width="0.405544"/>
<path d="M75.8558 189.882L70.2766 179.211C73.1068 177.732 76.4088 177.437 79.4564 178.392L75.8558 189.882Z" fill="#B6EF6E" stroke="black" stroke-width="0.405544"/>
<path d="M77.6192 190.303L81.1313 178.785C84.1861 179.716 86.7458 181.823 88.2472 184.642L77.6192 190.303Z" fill="#B6EF6E" stroke="black" stroke-width="0.405544"/>
<path d="M78.2599 191.455L89.0241 186.057C90.4557 188.912 90.6945 192.219 89.6881 195.25L78.2599 191.455Z" fill="#B6EF6E" stroke="black" stroke-width="0.405544"/>
<path d="M74.1367 192.162L62.7547 188.231C61.7122 191.249 61.9115 194.558 63.3088 197.43L74.1367 192.162Z" fill="#B6EF6E" stroke="black" stroke-width="0.405544"/>
<path d="M74.7783 193.12L64.1627 198.804C65.6703 201.619 68.2345 203.721 71.2914 204.646L74.7783 193.12Z" fill="#B6EF6E" stroke="black" stroke-width="0.405544"/>
<path d="M76.4726 193.765L72.8971 205.263C75.9467 206.211 79.2481 205.909 82.0751 204.424L76.4726 193.765Z" fill="#B6EF6E" stroke="black" stroke-width="0.405544"/>
<path d="M77.6507 193.172L83.514 203.69C86.3035 202.135 88.361 199.536 89.2339 196.463L77.6507 193.172Z" fill="#B6EF6E" stroke="black" stroke-width="0.405544"/>
<path d="M13.2829 314.972L1 192.605H76.2758L64.3382 314.972C64.3382 314.972 62.0691 320.876 38.8106 320.876C15.552 320.876 13.2829 314.972 13.2829 314.972Z" fill="#FFFDEF" stroke="black" stroke-width="0.405544"/>
<path d="M16.4356 311.92L5.60156 203.943H71.9982L61.4687 311.92C61.4687 311.92 59.4672 317.129 38.9522 317.129C18.4371 317.129 16.4356 311.92 16.4356 311.92Z" fill="url(#paint1_linear_3553_3232)" stroke="black" stroke-width="0.405544"/>
<circle cx="180.09" cy="191.974" r="18.8172" transform="rotate(10.5006 180.09 191.974)" fill="#B6EF6E" stroke="black" stroke-width="0.405544"/>
<circle cx="180.09" cy="191.974" r="17.1951" transform="rotate(10.5006 180.09 191.974)" fill="#F2FFCD" stroke="black" stroke-width="0.405544"/>
<path d="M178.596 190.314L166.974 187.161C167.81 184.079 169.836 181.455 172.607 179.867L178.596 190.314Z" fill="#B6EF6E" stroke="black" stroke-width="0.405544"/>
<path d="M179.665 189.883L174.086 179.212C176.916 177.732 180.218 177.437 183.266 178.392L179.665 189.883Z" fill="#B6EF6E" stroke="black" stroke-width="0.405544"/>
<path d="M181.429 190.303L184.941 178.785C187.996 179.716 190.555 181.823 192.057 184.642L181.429 190.303Z" fill="#B6EF6E" stroke="black" stroke-width="0.405544"/>
<path d="M182.07 191.455L192.834 186.058C194.266 188.912 194.505 192.219 193.498 195.25L182.07 191.455Z" fill="#B6EF6E" stroke="black" stroke-width="0.405544"/>
<path d="M177.946 192.162L166.564 188.231C165.521 191.249 165.721 194.559 167.118 197.43L177.946 192.162Z" fill="#B6EF6E" stroke="black" stroke-width="0.405544"/>
<path d="M178.588 193.12L167.972 198.804C169.48 201.62 172.044 203.721 175.101 204.646L178.588 193.12Z" fill="#B6EF6E" stroke="black" stroke-width="0.405544"/>
<path d="M180.283 193.765L176.707 205.263C179.757 206.212 183.058 205.91 185.885 204.424L180.283 193.765Z" fill="#B6EF6E" stroke="black" stroke-width="0.405544"/>
<path d="M181.46 193.172L187.324 203.69C190.113 202.135 192.171 199.536 193.043 196.464L181.46 193.172Z" fill="#B6EF6E" stroke="black" stroke-width="0.405544"/>
<path d="M117.092 314.972L104.809 192.605H180.085L168.147 314.972C168.147 314.972 165.878 320.876 142.62 320.876C119.361 320.876 117.092 314.972 117.092 314.972Z" fill="#F6FFEF" stroke="black" stroke-width="0.405544"/>
<path d="M120.246 311.92L109.412 203.943H175.808L165.279 311.92C165.279 311.92 163.277 317.129 142.762 317.129C122.247 317.129 120.246 311.92 120.246 311.92Z" fill="#66DA87" stroke="black" stroke-width="0.405544"/>
<path d="M129.835 226.908C129.743 226.849 129.637 226.818 129.528 226.818H119.07C118.504 226.818 118.288 227.556 118.764 227.862L123.574 230.949C123.665 231.008 123.771 231.039 123.88 231.039H134.338C134.904 231.039 135.12 230.301 134.644 229.995L129.835 226.908Z" fill="#C7E8EF" stroke="black" stroke-width="0.405544"/>
<path d="M123.666 230.449C123.836 230.551 123.94 230.736 123.94 230.934L123.94 242.153C123.94 242.594 123.459 242.866 123.081 242.639L118.319 239.774C118.149 239.671 118.045 239.487 118.045 239.288L118.045 228.069C118.045 227.628 118.526 227.356 118.904 227.583L123.666 230.449Z" fill="#C7E8EF" stroke="black" stroke-width="0.405544"/>
<rect width="12.5285" height="12.5204" rx="1.7007" transform="matrix(-1 0 0 1 135.477 230.331)" fill="#C7E8EF" stroke="black" stroke-width="0.405544"/>
<path d="M148.847 198.867C148.961 198.793 149.093 198.755 149.229 198.755H162.269C162.975 198.755 163.245 199.675 162.651 200.056L156.654 203.906C156.54 203.979 156.407 204.018 156.272 204.018H143.231C142.526 204.018 142.256 203.097 142.85 202.716L148.847 198.867Z" fill="#C7E8EF" stroke="black" stroke-width="0.405544"/>
<path d="M156.539 203.282C156.327 203.41 156.197 203.64 156.197 203.888L156.197 217.877C156.197 218.427 156.797 218.766 157.268 218.483L163.206 214.91C163.419 214.782 163.549 214.552 163.549 214.304L163.549 200.315C163.549 199.765 162.948 199.425 162.477 199.709L156.539 203.282Z" fill="#C7E8EF" stroke="black" stroke-width="0.405544"/>
<rect x="141.811" y="203.135" width="15.6226" height="15.6125" rx="2.12072" fill="#C7E8EF" stroke="black" stroke-width="0.405544"/>
<path fill-rule="evenodd" clip-rule="evenodd" d="M115.278 195.259C114.909 195.903 114.573 196.577 114.276 197.278C110.212 206.843 114.673 217.891 124.238 221.954C133.16 225.744 143.373 222.118 148.003 213.85L115.278 195.259Z" fill="#B6EF6E"/>
<path d="M115.278 195.259L115.378 195.082L115.203 194.983L115.102 195.158L115.278 195.259ZM148.003 213.85L148.18 213.95L148.278 213.774L148.103 213.674L148.003 213.85ZM114.462 197.357C114.757 196.664 115.089 195.997 115.454 195.359L115.102 195.158C114.729 195.81 114.39 196.49 114.089 197.198L114.462 197.357ZM124.317 221.768C114.855 217.748 110.443 206.819 114.462 197.357L114.089 197.198C109.982 206.867 114.49 218.034 124.159 222.141L124.317 221.768ZM147.826 213.751C143.246 221.93 133.143 225.517 124.317 221.768L124.159 222.141C133.177 225.972 143.5 222.307 148.18 213.95L147.826 213.751ZM148.103 213.674L115.378 195.082L115.178 195.435L147.903 214.027L148.103 213.674Z" fill="black"/>
<path fill-rule="evenodd" clip-rule="evenodd" d="M116.689 196.06C116.35 196.651 116.042 197.269 115.769 197.912C112.056 206.653 116.132 216.748 124.872 220.461C133.028 223.926 142.363 220.609 146.593 213.049L116.689 196.06Z" fill="#F2FFCD"/>
<path d="M116.689 196.06L116.789 195.884L116.613 195.784L116.513 195.959L116.689 196.06ZM146.593 213.049L146.769 213.148L146.868 212.972L146.693 212.873L146.593 213.049ZM115.955 197.991C116.225 197.356 116.529 196.745 116.865 196.161L116.513 195.959C116.17 196.557 115.858 197.182 115.582 197.833L115.955 197.991ZM124.951 220.275C116.314 216.605 112.286 206.629 115.955 197.991L115.582 197.833C111.825 206.676 115.949 216.891 124.793 220.648L124.951 220.275ZM146.416 212.95C142.236 220.421 133.011 223.698 124.951 220.275L124.793 220.648C133.045 224.153 142.49 220.797 146.769 213.148L146.416 212.95ZM146.693 212.873L116.789 195.884L116.589 196.236L146.492 213.225L146.693 212.873Z" fill="black"/>
<path d="M132.441 207.176L143.103 212.772C141.619 215.6 139.073 217.723 136.024 218.673L132.441 207.176Z" fill="#FFE819" stroke="black" stroke-width="0.405544"/>
<path d="M131.303 207.365L134.437 218.992C131.354 219.823 128.066 219.396 125.298 217.803L131.303 207.365Z" fill="#FFE819" stroke="black" stroke-width="0.405544"/>
<path d="M129.672 206.573L123.748 217.056C120.967 215.485 118.925 212.874 118.07 209.797L129.672 206.573Z" fill="#FFE819" stroke="black" stroke-width="0.405544"/>
<path d="M129.296 205.309L117.618 208.246C116.839 205.149 117.323 201.869 118.962 199.128L129.296 205.309Z" fill="#FFE819" stroke="black" stroke-width="0.405544"/>
<path fill-rule="evenodd" clip-rule="evenodd" d="M119.809 278.559C119.978 277.999 120.183 277.443 120.423 276.893C123.703 269.395 132.439 265.976 139.937 269.256C146.931 272.315 150.376 280.123 148.146 287.243L119.809 278.559Z" fill="#B6EF6E"/>
<path d="M119.809 278.559L119.762 278.711L119.61 278.665L119.656 278.512L119.809 278.559ZM148.146 287.243L148.298 287.291L148.251 287.443L148.099 287.396L148.146 287.243ZM120.569 276.957C120.331 277.501 120.129 278.051 119.962 278.605L119.656 278.512C119.827 277.946 120.034 277.384 120.277 276.829L120.569 276.957ZM139.873 269.402C132.456 266.158 123.814 269.54 120.569 276.957L120.277 276.829C123.592 269.251 132.423 265.794 140.001 269.109L139.873 269.402ZM147.994 287.196C150.2 280.152 146.792 272.428 139.873 269.402L140.001 269.109C147.07 272.202 150.553 280.093 148.298 287.291L147.994 287.196ZM148.099 287.396L119.762 278.711L119.856 278.406L148.193 287.091L148.099 287.396Z" fill="black"/>
<path fill-rule="evenodd" clip-rule="evenodd" d="M121.03 278.933C121.185 278.419 121.373 277.909 121.593 277.405C124.59 270.554 132.574 267.429 139.425 270.426C145.818 273.222 148.966 280.361 146.924 286.869L121.03 278.933Z" fill="#F2FFCD"/>
<path d="M121.03 278.933L120.983 279.086L120.831 279.039L120.877 278.887L121.03 278.933ZM146.924 286.869L147.077 286.917L147.029 287.068L146.878 287.022L146.924 286.869ZM121.739 277.469C121.521 277.967 121.336 278.472 121.183 278.979L120.877 278.887C121.034 278.367 121.224 277.851 121.447 277.341L121.739 277.469ZM139.361 270.572C132.591 267.611 124.701 270.699 121.739 277.469L121.447 277.341C124.479 270.409 132.557 267.247 139.489 270.28L139.361 270.572ZM146.772 286.821C148.79 280.39 145.679 273.336 139.361 270.572L139.489 270.28C145.957 273.109 149.143 280.331 147.077 286.917L146.772 286.821ZM146.878 287.022L120.983 279.086L121.077 278.781L146.971 286.717L146.878 287.022Z" fill="black"/>
<path d="M135.911 281.942L144.879 285.021C145.696 282.643 145.534 280.037 144.43 277.778L135.911 281.942Z" fill="#FFE819" stroke="black" stroke-width="0.319351"/>
<path d="M135.404 281.188L143.755 276.697C142.564 274.482 140.542 272.831 138.134 272.107L135.404 281.188Z" fill="#FFE819" stroke="black" stroke-width="0.319351"/>
<path d="M134.069 280.683L136.868 271.623C134.465 270.881 131.866 271.123 129.642 272.297L134.069 280.683Z" fill="#FFE819" stroke="black" stroke-width="0.319351"/>
<path d="M133.142 281.151L128.51 272.877C126.315 274.106 124.699 276.156 124.016 278.576L133.142 281.151Z" fill="#FFE819" stroke="black" stroke-width="0.319351"/>
<circle cx="151.236" cy="245.505" r="18.8172" transform="rotate(10.5006 151.236 245.505)" fill="#B6EF6E" stroke="black" stroke-width="0.405544"/>
<circle cx="151.236" cy="245.505" r="17.1951" transform="rotate(10.5006 151.236 245.505)" fill="#F2FFCD" stroke="black" stroke-width="0.405544"/>
<path d="M149.741 243.845L138.119 240.693C138.956 237.61 140.982 234.987 143.753 233.398L149.741 243.845Z" fill="#FFE819" stroke="black" stroke-width="0.405544"/>
<path d="M150.811 243.414L145.232 232.743C148.062 231.263 151.364 230.969 154.412 231.923L150.811 243.414Z" fill="#FFE819" stroke="black" stroke-width="0.405544"/>
<path d="M152.575 243.834L156.087 232.316C159.142 233.248 161.701 235.355 163.203 238.173L152.575 243.834Z" fill="#FFE819" stroke="black" stroke-width="0.405544"/>
<path d="M153.215 244.987L163.98 239.589C165.411 242.444 165.65 245.751 164.644 248.781L153.215 244.987Z" fill="#FFE819" stroke="black" stroke-width="0.405544"/>
<path d="M149.091 245.693L137.709 241.762C136.667 244.781 136.866 248.09 138.263 250.962L149.091 245.693Z" fill="#FFE819" stroke="black" stroke-width="0.405544"/>
<path d="M149.733 246.652L139.117 252.336C140.625 255.151 143.189 257.252 146.246 258.177L149.733 246.652Z" fill="#FFE819" stroke="black" stroke-width="0.405544"/>
<path d="M151.428 247.296L147.852 258.795C150.902 259.743 154.203 259.441 157.03 257.955L151.428 247.296Z" fill="#FFE819" stroke="black" stroke-width="0.405544"/>
<path d="M152.606 246.704L158.47 257.222C161.259 255.667 163.317 253.067 164.189 249.995L152.606 246.704Z" fill="#FFE819" stroke="black" stroke-width="0.405544"/>
<path d="M145.247 257.074C145.333 257.019 145.432 256.991 145.533 256.991H154.726C155.258 256.991 155.461 257.687 155.011 257.972L150.833 260.625C150.748 260.679 150.649 260.708 150.548 260.708H141.355C140.822 260.708 140.62 260.012 141.07 259.726L145.247 257.074Z" fill="#C7E8EF" stroke="black" stroke-width="0.325054"/>
<path d="M150.761 260.179C150.6 260.275 150.501 260.448 150.501 260.636L150.501 270.443C150.501 270.855 150.951 271.111 151.306 270.9L155.49 268.409C155.651 268.313 155.75 268.14 155.75 267.952L155.75 258.146C155.75 257.733 155.3 257.477 154.946 257.688L150.761 260.179Z" fill="#C7E8EF" stroke="black" stroke-width="0.325054"/>
<rect x="140.23" y="260.084" width="11.1534" height="11.026" rx="1.59647" fill="#C7E8EF" stroke="black" stroke-width="0.325054"/>
<defs>
<linearGradient id="paint0_linear_3553_3232" x1="65.7345" y1="29.1837" x2="55.7701" y2="29.1837" gradientUnits="userSpaceOnUse">
<stop stop-color="#9E00FF"/>
<stop offset="0.185" stop-color="#222C61"/>
<stop offset="0.345" stop-color="#0035BE"/>
<stop offset="0.51" stop-color="#00C34E"/>
<stop offset="0.67" stop-color="#FFF500"/>
<stop offset="0.83" stop-color="#F27400"/>
<stop offset="1" stop-color="#FF0000"/>
</linearGradient>
<linearGradient id="paint1_linear_3553_3232" x1="38.7999" y1="203.943" x2="38.7999" y2="317.129" gradientUnits="userSpaceOnUse">
<stop stop-color="#FFE860"/>
<stop offset="1" stop-color="#FF581B"/>
</linearGradient>
</defs>
</svg>
